M48
;Layer_Color=9474304
;FILE_FORMAT=2:5
INCH,LZ
;TYPE=PLATED
T1F00S00C0.03150
T2F00S00C0.03346
T3F00S00C0.03543
T4F00S00C0.04724
%
T01
X00505Y00315
X00805
X01005
X01205
Y00615
X01005
X00805
X00505
X0052Y0089
X0062
X0072
X0084
X0094
X0104
X0103Y01205
Y01305
X003Y0131
Y0121
T02
X003Y0089
Y0099
X00675Y01205
Y01305
X0083
Y01205
T03
X006Y001
X007
X008
X009
X014Y0062
Y0072
Y01
Y011
Y012
Y013
X001
Y012
Y011
Y01
T04
X003Y0031409
Y0072591
M30
