G04*
G04 #@! TF.GenerationSoftware,Altium Limited,Altium Designer,21.6.1 (37)*
G04*
G04 Layer_Color=16711935*
%FSLAX25Y25*%
%MOIN*%
G70*
G04*
G04 #@! TF.SameCoordinates,5A4F57BB-18EF-4FC9-9596-1EF8DA8ABA7A*
G04*
G04*
G04 #@! TF.FilePolarity,Positive*
G04*
G01*
G75*
%ADD12C,0.00787*%
G36*
X91092Y85361D02*
X91124Y85358D01*
X91164Y85354D01*
X91205Y85351D01*
X91252Y85340D01*
X91350Y85318D01*
X91459Y85285D01*
X91514Y85263D01*
X91565Y85238D01*
X91616Y85205D01*
X91667Y85172D01*
X91670Y85169D01*
X91678Y85165D01*
X91692Y85154D01*
X91710Y85136D01*
X91729Y85118D01*
X91754Y85092D01*
X91780Y85063D01*
X91809Y85034D01*
X91838Y84997D01*
X91867Y84954D01*
X91900Y84910D01*
X91929Y84863D01*
X91954Y84808D01*
X91983Y84754D01*
X92005Y84695D01*
X92027Y84630D01*
X91699Y84553D01*
Y84557D01*
X91696Y84564D01*
X91689Y84579D01*
X91681Y84597D01*
X91674Y84619D01*
X91663Y84648D01*
X91634Y84706D01*
X91598Y84772D01*
X91554Y84837D01*
X91499Y84899D01*
X91441Y84954D01*
X91434Y84961D01*
X91412Y84976D01*
X91375Y84994D01*
X91328Y85019D01*
X91266Y85041D01*
X91197Y85063D01*
X91114Y85078D01*
X91022Y85081D01*
X90993D01*
X90975Y85078D01*
X90950D01*
X90921Y85074D01*
X90851Y85063D01*
X90775Y85048D01*
X90695Y85023D01*
X90611Y84987D01*
X90535Y84939D01*
X90531D01*
X90527Y84932D01*
X90502Y84914D01*
X90469Y84885D01*
X90429Y84841D01*
X90382Y84786D01*
X90338Y84724D01*
X90298Y84648D01*
X90262Y84564D01*
Y84561D01*
X90258Y84553D01*
X90254Y84543D01*
X90251Y84524D01*
X90244Y84502D01*
X90236Y84477D01*
X90225Y84415D01*
X90211Y84342D01*
X90196Y84262D01*
X90189Y84175D01*
X90185Y84080D01*
Y84077D01*
Y84066D01*
Y84047D01*
Y84026D01*
X90189Y84000D01*
Y83967D01*
X90193Y83931D01*
X90196Y83891D01*
X90207Y83804D01*
X90225Y83709D01*
X90247Y83614D01*
X90276Y83520D01*
Y83516D01*
X90280Y83509D01*
X90287Y83498D01*
X90294Y83480D01*
X90316Y83436D01*
X90349Y83385D01*
X90389Y83327D01*
X90440Y83265D01*
X90498Y83210D01*
X90567Y83159D01*
X90571D01*
X90578Y83156D01*
X90589Y83148D01*
X90604Y83141D01*
X90622Y83134D01*
X90644Y83123D01*
X90695Y83101D01*
X90760Y83079D01*
X90833Y83061D01*
X90913Y83046D01*
X90997Y83043D01*
X91022D01*
X91044Y83046D01*
X91070D01*
X91095Y83050D01*
X91161Y83065D01*
X91237Y83083D01*
X91314Y83112D01*
X91394Y83152D01*
X91434Y83174D01*
X91470Y83203D01*
X91474Y83207D01*
X91478Y83210D01*
X91488Y83221D01*
X91503Y83232D01*
X91518Y83250D01*
X91536Y83272D01*
X91558Y83294D01*
X91576Y83323D01*
X91598Y83356D01*
X91623Y83392D01*
X91645Y83429D01*
X91667Y83472D01*
X91685Y83520D01*
X91703Y83571D01*
X91721Y83625D01*
X91736Y83683D01*
X92071Y83600D01*
Y83596D01*
X92067Y83582D01*
X92060Y83560D01*
X92049Y83531D01*
X92038Y83498D01*
X92023Y83458D01*
X92005Y83414D01*
X91983Y83367D01*
X91932Y83265D01*
X91867Y83163D01*
X91827Y83112D01*
X91787Y83061D01*
X91743Y83017D01*
X91692Y82974D01*
X91689Y82970D01*
X91681Y82963D01*
X91663Y82955D01*
X91645Y82941D01*
X91616Y82923D01*
X91587Y82904D01*
X91547Y82886D01*
X91507Y82868D01*
X91459Y82846D01*
X91408Y82828D01*
X91354Y82810D01*
X91295Y82792D01*
X91234Y82777D01*
X91168Y82770D01*
X91099Y82762D01*
X91026Y82759D01*
X90986D01*
X90957Y82762D01*
X90924D01*
X90884Y82766D01*
X90841Y82773D01*
X90790Y82781D01*
X90684Y82799D01*
X90575Y82828D01*
X90465Y82868D01*
X90415Y82894D01*
X90364Y82923D01*
X90360Y82926D01*
X90353Y82930D01*
X90338Y82941D01*
X90324Y82955D01*
X90302Y82970D01*
X90276Y82992D01*
X90247Y83017D01*
X90218Y83046D01*
X90189Y83079D01*
X90156Y83112D01*
X90091Y83196D01*
X90029Y83294D01*
X89974Y83403D01*
Y83407D01*
X89967Y83418D01*
X89963Y83436D01*
X89952Y83458D01*
X89945Y83487D01*
X89934Y83523D01*
X89920Y83563D01*
X89909Y83607D01*
X89898Y83654D01*
X89883Y83709D01*
X89865Y83822D01*
X89850Y83949D01*
X89843Y84080D01*
Y84084D01*
Y84098D01*
Y84120D01*
X89847Y84146D01*
Y84182D01*
X89850Y84219D01*
X89854Y84266D01*
X89861Y84313D01*
X89880Y84419D01*
X89905Y84535D01*
X89941Y84652D01*
X89992Y84764D01*
X89996Y84768D01*
X90000Y84779D01*
X90007Y84794D01*
X90022Y84812D01*
X90036Y84837D01*
X90054Y84866D01*
X90101Y84932D01*
X90163Y85005D01*
X90236Y85078D01*
X90320Y85150D01*
X90418Y85212D01*
X90422Y85216D01*
X90433Y85220D01*
X90447Y85227D01*
X90465Y85238D01*
X90495Y85249D01*
X90524Y85260D01*
X90560Y85274D01*
X90600Y85289D01*
X90644Y85303D01*
X90691Y85318D01*
X90793Y85340D01*
X90910Y85358D01*
X91030Y85365D01*
X91066D01*
X91092Y85361D01*
D02*
G37*
G36*
X93516Y85318D02*
X93589Y85314D01*
X93661Y85307D01*
X93734Y85296D01*
X93796Y85285D01*
X93800D01*
X93807Y85281D01*
X93818D01*
X93832Y85274D01*
X93873Y85263D01*
X93923Y85245D01*
X93982Y85220D01*
X94044Y85187D01*
X94105Y85150D01*
X94164Y85103D01*
X94167Y85099D01*
X94171Y85096D01*
X94182Y85085D01*
X94196Y85074D01*
X94233Y85037D01*
X94277Y84987D01*
X94324Y84925D01*
X94375Y84852D01*
X94422Y84768D01*
X94462Y84674D01*
Y84670D01*
X94466Y84663D01*
X94473Y84648D01*
X94477Y84626D01*
X94488Y84601D01*
X94495Y84572D01*
X94502Y84539D01*
X94513Y84499D01*
X94524Y84459D01*
X94531Y84411D01*
X94550Y84310D01*
X94560Y84197D01*
X94564Y84073D01*
Y84069D01*
Y84062D01*
Y84044D01*
Y84026D01*
X94560Y84000D01*
Y83971D01*
X94557Y83902D01*
X94546Y83822D01*
X94535Y83738D01*
X94517Y83651D01*
X94495Y83563D01*
Y83560D01*
X94491Y83552D01*
X94488Y83542D01*
X94484Y83527D01*
X94469Y83487D01*
X94448Y83436D01*
X94426Y83378D01*
X94397Y83319D01*
X94360Y83258D01*
X94324Y83199D01*
X94320Y83192D01*
X94306Y83174D01*
X94284Y83148D01*
X94255Y83116D01*
X94222Y83079D01*
X94182Y83043D01*
X94142Y83003D01*
X94095Y82970D01*
X94087Y82966D01*
X94073Y82955D01*
X94047Y82941D01*
X94011Y82923D01*
X93967Y82901D01*
X93916Y82883D01*
X93858Y82861D01*
X93792Y82843D01*
X93785D01*
X93774Y82839D01*
X93763Y82835D01*
X93727Y82832D01*
X93676Y82824D01*
X93618Y82817D01*
X93549Y82810D01*
X93472Y82806D01*
X93388Y82803D01*
X92482D01*
Y85321D01*
X93450D01*
X93516Y85318D01*
D02*
G37*
G36*
X88303Y83101D02*
X89545D01*
Y82803D01*
X87968D01*
Y85321D01*
X88303D01*
Y83101D01*
D02*
G37*
%LPC*%
G36*
X93399Y85023D02*
X92817D01*
Y83101D01*
X93414D01*
X93439Y83105D01*
X93494Y83108D01*
X93556Y83112D01*
X93621Y83119D01*
X93687Y83130D01*
X93742Y83145D01*
X93749Y83148D01*
X93767Y83152D01*
X93792Y83163D01*
X93825Y83178D01*
X93862Y83199D01*
X93898Y83221D01*
X93935Y83247D01*
X93971Y83276D01*
X93975Y83283D01*
X93989Y83298D01*
X94011Y83323D01*
X94036Y83359D01*
X94065Y83407D01*
X94098Y83461D01*
X94127Y83523D01*
X94153Y83592D01*
Y83596D01*
X94156Y83603D01*
X94160Y83614D01*
X94164Y83629D01*
X94167Y83647D01*
X94175Y83672D01*
X94182Y83698D01*
X94189Y83727D01*
X94200Y83800D01*
X94211Y83884D01*
X94218Y83978D01*
X94222Y84080D01*
Y84084D01*
Y84098D01*
Y84117D01*
X94218Y84146D01*
Y84179D01*
X94215Y84215D01*
X94211Y84259D01*
X94208Y84302D01*
X94189Y84400D01*
X94167Y84502D01*
X94135Y84597D01*
X94113Y84644D01*
X94091Y84684D01*
Y84688D01*
X94084Y84695D01*
X94076Y84706D01*
X94069Y84721D01*
X94040Y84757D01*
X94004Y84801D01*
X93956Y84848D01*
X93902Y84896D01*
X93840Y84936D01*
X93774Y84968D01*
X93767Y84972D01*
X93749Y84976D01*
X93716Y84987D01*
X93669Y84997D01*
X93611Y85005D01*
X93538Y85016D01*
X93494Y85019D01*
X93447D01*
X93399Y85023D01*
D02*
G37*
%LPD*%
D12*
X14346Y30646D02*
Y136354D01*
Y30646D02*
X161591D01*
Y136354D01*
X14346D02*
X161591D01*
M02*
