G04*
G04 #@! TF.GenerationSoftware,Altium Limited,Altium Designer,21.6.1 (37)*
G04*
G04 Layer_Color=255*
%FSLAX25Y25*%
%MOIN*%
G70*
G04*
G04 #@! TF.SameCoordinates,5A4F57BB-18EF-4FC9-9596-1EF8DA8ABA7A*
G04*
G04*
G04 #@! TF.FilePolarity,Positive*
G04*
G01*
G75*
%ADD21C,0.04921*%
%ADD22R,0.04921X0.04921*%
%ADD24C,0.05906*%
%ADD25R,0.05906X0.05906*%
%ADD26C,0.05512*%
%ADD27C,0.06299*%
%ADD28R,0.05906X0.05906*%
%ADD29R,0.05039X0.05039*%
%ADD30C,0.05039*%
D21*
X41000Y133500D02*
D03*
X51000D02*
D03*
X61000D02*
D03*
X71000D02*
D03*
X81000D02*
D03*
X91000D02*
D03*
X101000D02*
D03*
X111000D02*
D03*
X121000D02*
D03*
X131000D02*
D03*
Y33500D02*
D03*
X121000D02*
D03*
X51000D02*
D03*
D22*
X41000D02*
D03*
D24*
X345000Y190000D02*
D03*
X335000D02*
D03*
X325000D02*
D03*
X315000D02*
D03*
X305000D02*
D03*
X295000D02*
D03*
X285000D02*
D03*
X463500Y10000D02*
D03*
X453500D02*
D03*
X443500D02*
D03*
X433500D02*
D03*
X423500D02*
D03*
X413500D02*
D03*
X403500D02*
D03*
X486500Y44000D02*
D03*
Y54000D02*
D03*
Y64000D02*
D03*
Y74000D02*
D03*
Y84000D02*
D03*
X175642Y79795D02*
D03*
X193358D02*
D03*
Y54205D02*
D03*
X373150Y10000D02*
D03*
X363150D02*
D03*
X353150D02*
D03*
X343150D02*
D03*
X333150D02*
D03*
X323150D02*
D03*
X313150D02*
D03*
X486500Y127500D02*
D03*
Y137500D02*
D03*
Y147500D02*
D03*
Y157500D02*
D03*
Y167500D02*
D03*
X425000Y168000D02*
D03*
X415000D02*
D03*
X405000D02*
D03*
X395000D02*
D03*
X375000D02*
D03*
X385000D02*
D03*
X110000Y190000D02*
D03*
X120000D02*
D03*
X130000D02*
D03*
X395000D02*
D03*
X385000D02*
D03*
X375000D02*
D03*
D25*
X275000D02*
D03*
X393500Y10000D02*
D03*
X303150D02*
D03*
X365000Y168000D02*
D03*
X140000Y190000D02*
D03*
X365000D02*
D03*
D26*
X183500Y101000D02*
D03*
X193500D02*
D03*
Y131000D02*
D03*
X183500D02*
D03*
X258500Y53000D02*
D03*
Y43000D02*
D03*
X244000Y53000D02*
D03*
Y43000D02*
D03*
X229500Y53000D02*
D03*
Y43000D02*
D03*
X215000Y53000D02*
D03*
Y43000D02*
D03*
X395000Y146000D02*
D03*
X405000D02*
D03*
X385000D02*
D03*
X375000D02*
D03*
X111000Y153000D02*
D03*
X101000D02*
D03*
X131000Y158500D02*
D03*
Y148500D02*
D03*
X320500Y55500D02*
D03*
X310500D02*
D03*
X305000Y147000D02*
D03*
X315000D02*
D03*
D27*
X183500Y148500D02*
D03*
X193500D02*
D03*
D28*
X486500Y94000D02*
D03*
X175642Y54205D02*
D03*
X486500Y117500D02*
D03*
D29*
X215000Y70116D02*
D03*
D30*
X225000D02*
D03*
X235000D02*
D03*
X245000D02*
D03*
X255000D02*
D03*
X265000D02*
D03*
X275000D02*
D03*
X285000D02*
D03*
X295000D02*
D03*
X305000D02*
D03*
X315000D02*
D03*
X325000D02*
D03*
X335000D02*
D03*
X345000D02*
D03*
X355000D02*
D03*
X365000D02*
D03*
X375000D02*
D03*
X385000D02*
D03*
X395000D02*
D03*
X405000D02*
D03*
Y130884D02*
D03*
X395000D02*
D03*
X385000D02*
D03*
X375000D02*
D03*
X365000D02*
D03*
X355000D02*
D03*
X345000D02*
D03*
X335000D02*
D03*
X325000D02*
D03*
X315000D02*
D03*
X305000D02*
D03*
X295000D02*
D03*
X285000D02*
D03*
X275000D02*
D03*
X265000D02*
D03*
X255000D02*
D03*
X245000D02*
D03*
X235000D02*
D03*
X225000D02*
D03*
X215000D02*
D03*
M02*
