G04*
G04 #@! TF.GenerationSoftware,Altium Limited,Altium Designer,21.6.1 (37)*
G04*
G04 Layer_Physical_Order=1*
G04 Layer_Color=255*
%FSLAX25Y25*%
%MOIN*%
G70*
G04*
G04 #@! TF.SameCoordinates,5A4F57BB-18EF-4FC9-9596-1EF8DA8ABA7A*
G04*
G04*
G04 #@! TF.FilePolarity,Positive*
G04*
G01*
G75*
%ADD10C,0.01000*%
%ADD21C,0.04921*%
%ADD22R,0.04921X0.04921*%
%ADD24C,0.05906*%
%ADD25R,0.05906X0.05906*%
%ADD26C,0.05512*%
%ADD27C,0.06299*%
%ADD28R,0.05906X0.05906*%
%ADD29R,0.05039X0.05039*%
%ADD30C,0.05039*%
%ADD31C,0.18000*%
G36*
X505000Y0D02*
X0D01*
Y200000D01*
X505000D01*
Y0D01*
D02*
G37*
%LPC*%
G36*
X120520Y193953D02*
X120500D01*
Y190500D01*
X123953D01*
Y190520D01*
X123683Y191526D01*
X123163Y192427D01*
X122427Y193163D01*
X121526Y193683D01*
X120520Y193953D01*
D02*
G37*
G36*
X285520D02*
X285500D01*
Y190500D01*
X288953D01*
Y190520D01*
X288683Y191526D01*
X288163Y192427D01*
X287427Y193163D01*
X286526Y193683D01*
X285520Y193953D01*
D02*
G37*
G36*
X284500D02*
X284480D01*
X283474Y193683D01*
X282573Y193163D01*
X281837Y192427D01*
X281317Y191526D01*
X281047Y190520D01*
Y190500D01*
X284500D01*
Y193953D01*
D02*
G37*
G36*
X119500D02*
X119480D01*
X118474Y193683D01*
X117573Y193163D01*
X116837Y192427D01*
X116317Y191526D01*
X116047Y190520D01*
Y190500D01*
X119500D01*
Y193953D01*
D02*
G37*
G36*
X395520D02*
X394480D01*
X393474Y193683D01*
X392573Y193163D01*
X391837Y192427D01*
X391317Y191526D01*
X391047Y190520D01*
Y189480D01*
X391317Y188474D01*
X391837Y187573D01*
X392573Y186837D01*
X393474Y186317D01*
X394480Y186047D01*
X395520D01*
X396526Y186317D01*
X397427Y186837D01*
X398163Y187573D01*
X398683Y188474D01*
X398953Y189480D01*
Y190520D01*
X398683Y191526D01*
X398163Y192427D01*
X397427Y193163D01*
X396526Y193683D01*
X395520Y193953D01*
D02*
G37*
G36*
X385520D02*
X384480D01*
X383474Y193683D01*
X382573Y193163D01*
X381837Y192427D01*
X381317Y191526D01*
X381047Y190520D01*
Y189480D01*
X381317Y188474D01*
X381837Y187573D01*
X382573Y186837D01*
X383474Y186317D01*
X384480Y186047D01*
X385520D01*
X386526Y186317D01*
X387427Y186837D01*
X388163Y187573D01*
X388683Y188474D01*
X388953Y189480D01*
Y190520D01*
X388683Y191526D01*
X388163Y192427D01*
X387427Y193163D01*
X386526Y193683D01*
X385520Y193953D01*
D02*
G37*
G36*
X368953D02*
X361047D01*
Y186047D01*
X368953D01*
Y193953D01*
D02*
G37*
G36*
X345520D02*
X344480D01*
X343474Y193683D01*
X342573Y193163D01*
X341837Y192427D01*
X341317Y191526D01*
X341047Y190520D01*
Y189480D01*
X341317Y188474D01*
X341837Y187573D01*
X342573Y186837D01*
X343474Y186317D01*
X344480Y186047D01*
X345520D01*
X346526Y186317D01*
X347427Y186837D01*
X348163Y187573D01*
X348683Y188474D01*
X348953Y189480D01*
Y190520D01*
X348683Y191526D01*
X348163Y192427D01*
X347427Y193163D01*
X346526Y193683D01*
X345520Y193953D01*
D02*
G37*
G36*
X335520D02*
X334480D01*
X333474Y193683D01*
X332573Y193163D01*
X331837Y192427D01*
X331317Y191526D01*
X331047Y190520D01*
Y189480D01*
X331317Y188474D01*
X331837Y187573D01*
X332573Y186837D01*
X333474Y186317D01*
X334480Y186047D01*
X335520D01*
X336526Y186317D01*
X337427Y186837D01*
X338163Y187573D01*
X338683Y188474D01*
X338953Y189480D01*
Y190520D01*
X338683Y191526D01*
X338163Y192427D01*
X337427Y193163D01*
X336526Y193683D01*
X335520Y193953D01*
D02*
G37*
G36*
X325520D02*
X324480D01*
X323474Y193683D01*
X322573Y193163D01*
X321837Y192427D01*
X321317Y191526D01*
X321047Y190520D01*
Y189480D01*
X321317Y188474D01*
X321837Y187573D01*
X322573Y186837D01*
X323474Y186317D01*
X324480Y186047D01*
X325520D01*
X326526Y186317D01*
X327427Y186837D01*
X328163Y187573D01*
X328683Y188474D01*
X328953Y189480D01*
Y190520D01*
X328683Y191526D01*
X328163Y192427D01*
X327427Y193163D01*
X326526Y193683D01*
X325520Y193953D01*
D02*
G37*
G36*
X295520D02*
X294480D01*
X293474Y193683D01*
X292573Y193163D01*
X291837Y192427D01*
X291317Y191526D01*
X291047Y190520D01*
Y189480D01*
X291317Y188474D01*
X291837Y187573D01*
X292573Y186837D01*
X293474Y186317D01*
X294480Y186047D01*
X295520D01*
X296526Y186317D01*
X297427Y186837D01*
X298163Y187573D01*
X298683Y188474D01*
X298953Y189480D01*
Y190520D01*
X298683Y191526D01*
X298163Y192427D01*
X297427Y193163D01*
X296526Y193683D01*
X295520Y193953D01*
D02*
G37*
G36*
X288953Y189500D02*
X285500D01*
Y186047D01*
X285520D01*
X286526Y186317D01*
X287427Y186837D01*
X288163Y187573D01*
X288683Y188474D01*
X288953Y189480D01*
Y189500D01*
D02*
G37*
G36*
X284500D02*
X281047D01*
Y189480D01*
X281317Y188474D01*
X281837Y187573D01*
X282573Y186837D01*
X283474Y186317D01*
X284480Y186047D01*
X284500D01*
Y189500D01*
D02*
G37*
G36*
X278953Y193953D02*
X271047D01*
Y186047D01*
X278953D01*
Y193953D01*
D02*
G37*
G36*
X143953D02*
X136047D01*
Y186047D01*
X143953D01*
Y193953D01*
D02*
G37*
G36*
X130520D02*
X129480D01*
X128474Y193683D01*
X127573Y193163D01*
X126837Y192427D01*
X126317Y191526D01*
X126047Y190520D01*
Y189480D01*
X126317Y188474D01*
X126837Y187573D01*
X127573Y186837D01*
X128474Y186317D01*
X129480Y186047D01*
X130520D01*
X131526Y186317D01*
X132427Y186837D01*
X133163Y187573D01*
X133683Y188474D01*
X133953Y189480D01*
Y190520D01*
X133683Y191526D01*
X133163Y192427D01*
X132427Y193163D01*
X131526Y193683D01*
X130520Y193953D01*
D02*
G37*
G36*
X123953Y189500D02*
X120500D01*
Y186047D01*
X120520D01*
X121526Y186317D01*
X122427Y186837D01*
X123163Y187573D01*
X123683Y188474D01*
X123953Y189480D01*
Y189500D01*
D02*
G37*
G36*
X119500D02*
X116047D01*
Y189480D01*
X116317Y188474D01*
X116837Y187573D01*
X117573Y186837D01*
X118474Y186317D01*
X119480Y186047D01*
X119500D01*
Y189500D01*
D02*
G37*
G36*
X110520Y193953D02*
X109480D01*
X108474Y193683D01*
X107573Y193163D01*
X106837Y192427D01*
X106317Y191526D01*
X106047Y190520D01*
Y189480D01*
X106317Y188474D01*
X106837Y187573D01*
X107573Y186837D01*
X108474Y186317D01*
X109480Y186047D01*
X110520D01*
X111526Y186317D01*
X112427Y186837D01*
X113163Y187573D01*
X113683Y188474D01*
X113953Y189480D01*
Y190520D01*
X113683Y191526D01*
X113163Y192427D01*
X112427Y193163D01*
X111526Y193683D01*
X110520Y193953D01*
D02*
G37*
G36*
X492185Y196000D02*
X490215D01*
X488283Y195616D01*
X486463Y194862D01*
X484825Y193767D01*
X483432Y192375D01*
X482338Y190737D01*
X481584Y188917D01*
X481200Y186985D01*
Y185015D01*
X481584Y183083D01*
X482338Y181263D01*
X483432Y179625D01*
X484825Y178233D01*
X486463Y177138D01*
X488283Y176384D01*
X490215Y176000D01*
X492185D01*
X494117Y176384D01*
X495937Y177138D01*
X497575Y178233D01*
X498968Y179625D01*
X500062Y181263D01*
X500816Y183083D01*
X501200Y185015D01*
Y186985D01*
X500816Y188917D01*
X500062Y190737D01*
X498968Y192375D01*
X497575Y193767D01*
X495937Y194862D01*
X494117Y195616D01*
X492185Y196000D01*
D02*
G37*
G36*
X182087D02*
X180117D01*
X178185Y195616D01*
X176366Y194862D01*
X174728Y193767D01*
X173335Y192375D01*
X172240Y190737D01*
X171487Y188917D01*
X171102Y186985D01*
Y185015D01*
X171487Y183083D01*
X172240Y181263D01*
X173335Y179625D01*
X174728Y178233D01*
X176366Y177138D01*
X178185Y176384D01*
X180117Y176000D01*
X182087D01*
X184019Y176384D01*
X185839Y177138D01*
X187477Y178233D01*
X188870Y179625D01*
X189964Y181263D01*
X190718Y183083D01*
X191102Y185015D01*
Y186985D01*
X190718Y188917D01*
X189964Y190737D01*
X188870Y192375D01*
X187477Y193767D01*
X185839Y194862D01*
X184019Y195616D01*
X182087Y196000D01*
D02*
G37*
G36*
X368953Y171953D02*
X365500D01*
Y168500D01*
X368953D01*
Y171953D01*
D02*
G37*
G36*
X364500D02*
X361047D01*
Y168500D01*
X364500D01*
Y171953D01*
D02*
G37*
G36*
X375520Y193953D02*
X374480D01*
X373474Y193683D01*
X372573Y193163D01*
X371837Y192427D01*
X371317Y191526D01*
X371047Y190520D01*
Y189480D01*
X371317Y188474D01*
X371837Y187573D01*
X372573Y186837D01*
X373471Y186319D01*
Y185000D01*
X373587Y184415D01*
X373919Y183919D01*
X381419Y176419D01*
X381915Y176087D01*
X382500Y175971D01*
X420866D01*
X423471Y173366D01*
Y171681D01*
X422573Y171163D01*
X421837Y170427D01*
X421317Y169526D01*
X421047Y168520D01*
Y167480D01*
X421317Y166474D01*
X421837Y165573D01*
X422573Y164837D01*
X423474Y164317D01*
X424480Y164047D01*
X425520D01*
X426526Y164317D01*
X427427Y164837D01*
X428163Y165573D01*
X428683Y166474D01*
X428953Y167480D01*
Y168520D01*
X428683Y169526D01*
X428163Y170427D01*
X427427Y171163D01*
X426529Y171681D01*
Y174000D01*
X426413Y174585D01*
X426081Y175081D01*
X422581Y178581D01*
X422085Y178913D01*
X421500Y179029D01*
X383134D01*
X376529Y185634D01*
Y186319D01*
X377427Y186837D01*
X378163Y187573D01*
X378683Y188474D01*
X378953Y189480D01*
Y190520D01*
X378683Y191526D01*
X378163Y192427D01*
X377427Y193163D01*
X376526Y193683D01*
X375520Y193953D01*
D02*
G37*
G36*
X415520Y171953D02*
X414480D01*
X413474Y171683D01*
X412573Y171163D01*
X411837Y170427D01*
X411317Y169526D01*
X411047Y168520D01*
Y167480D01*
X411317Y166474D01*
X411837Y165573D01*
X412573Y164837D01*
X413474Y164317D01*
X414480Y164047D01*
X415520D01*
X416526Y164317D01*
X417427Y164837D01*
X418163Y165573D01*
X418683Y166474D01*
X418953Y167480D01*
Y168520D01*
X418683Y169526D01*
X418163Y170427D01*
X417427Y171163D01*
X416526Y171683D01*
X415520Y171953D01*
D02*
G37*
G36*
X405520D02*
X404480D01*
X403474Y171683D01*
X402573Y171163D01*
X401837Y170427D01*
X401317Y169526D01*
X401047Y168520D01*
Y167480D01*
X401317Y166474D01*
X401837Y165573D01*
X402573Y164837D01*
X403474Y164317D01*
X404480Y164047D01*
X405520D01*
X406526Y164317D01*
X407427Y164837D01*
X408163Y165573D01*
X408683Y166474D01*
X408953Y167480D01*
Y168520D01*
X408683Y169526D01*
X408163Y170427D01*
X407427Y171163D01*
X406526Y171683D01*
X405520Y171953D01*
D02*
G37*
G36*
X375520D02*
X374480D01*
X373474Y171683D01*
X372573Y171163D01*
X371837Y170427D01*
X371317Y169526D01*
X371047Y168520D01*
Y167480D01*
X371317Y166474D01*
X371837Y165573D01*
X372573Y164837D01*
X373474Y164317D01*
X374480Y164047D01*
X375520D01*
X376526Y164317D01*
X377427Y164837D01*
X378163Y165573D01*
X378683Y166474D01*
X378953Y167480D01*
Y168520D01*
X378683Y169526D01*
X378163Y170427D01*
X377427Y171163D01*
X376526Y171683D01*
X375520Y171953D01*
D02*
G37*
G36*
X368953Y167500D02*
X365500D01*
Y164047D01*
X368953D01*
Y167500D01*
D02*
G37*
G36*
X364500D02*
X361047D01*
Y164047D01*
X364500D01*
Y167500D01*
D02*
G37*
G36*
X487020Y171453D02*
X485980D01*
X484974Y171183D01*
X484073Y170663D01*
X483337Y169927D01*
X482817Y169026D01*
X482547Y168020D01*
Y166980D01*
X482817Y165974D01*
X483337Y165073D01*
X484073Y164337D01*
X484974Y163817D01*
X485980Y163547D01*
X487020D01*
X488026Y163817D01*
X488927Y164337D01*
X489663Y165073D01*
X490183Y165974D01*
X490453Y166980D01*
Y168020D01*
X490183Y169026D01*
X489663Y169927D01*
X488927Y170663D01*
X488026Y171183D01*
X487020Y171453D01*
D02*
G37*
G36*
X131494Y162256D02*
X130506D01*
X129550Y162000D01*
X128694Y161505D01*
X127995Y160806D01*
X127500Y159950D01*
X127244Y158994D01*
Y158005D01*
X127500Y157050D01*
X127995Y156194D01*
X128694Y155494D01*
X129550Y155000D01*
X130506Y154744D01*
X131494D01*
X132450Y155000D01*
X133306Y155494D01*
X134005Y156194D01*
X134500Y157050D01*
X134756Y158005D01*
Y158994D01*
X134500Y159950D01*
X134005Y160806D01*
X133306Y161505D01*
X132450Y162000D01*
X131494Y162256D01*
D02*
G37*
G36*
X487020Y161453D02*
X485980D01*
X484974Y161183D01*
X484073Y160663D01*
X483337Y159927D01*
X482817Y159026D01*
X482547Y158020D01*
Y156980D01*
X482817Y155974D01*
X483337Y155073D01*
X484073Y154337D01*
X484974Y153817D01*
X485980Y153547D01*
X487020D01*
X488026Y153817D01*
X488927Y154337D01*
X489663Y155073D01*
X490183Y155974D01*
X490453Y156980D01*
Y158020D01*
X490183Y159026D01*
X489663Y159927D01*
X488927Y160663D01*
X488026Y161183D01*
X487020Y161453D01*
D02*
G37*
G36*
X111500Y156754D02*
Y153500D01*
X114754D01*
X114500Y154450D01*
X114005Y155306D01*
X113306Y156006D01*
X112450Y156500D01*
X111500Y156754D01*
D02*
G37*
G36*
X110500D02*
X109550Y156500D01*
X108694Y156006D01*
X107994Y155306D01*
X107500Y154450D01*
X107246Y153500D01*
X110500D01*
Y156754D01*
D02*
G37*
G36*
X114754Y152500D02*
X111500D01*
Y149246D01*
X112450Y149500D01*
X113306Y149995D01*
X114005Y150694D01*
X114500Y151550D01*
X114754Y152500D01*
D02*
G37*
G36*
X110500D02*
X107246D01*
X107500Y151550D01*
X107994Y150694D01*
X108694Y149995D01*
X109550Y149500D01*
X110500Y149246D01*
Y152500D01*
D02*
G37*
G36*
X101495Y156756D02*
X100505D01*
X99550Y156500D01*
X98694Y156006D01*
X97995Y155306D01*
X97500Y154450D01*
X97244Y153495D01*
Y152506D01*
X97500Y151550D01*
X97995Y150694D01*
X98694Y149995D01*
X99550Y149500D01*
X100505Y149244D01*
X101495D01*
X102450Y149500D01*
X103306Y149995D01*
X104006Y150694D01*
X104500Y151550D01*
X104756Y152506D01*
Y153495D01*
X104500Y154450D01*
X104006Y155306D01*
X103306Y156006D01*
X102450Y156500D01*
X101495Y156756D01*
D02*
G37*
G36*
X184046Y152650D02*
X184000D01*
Y149000D01*
X187650D01*
Y149046D01*
X187367Y150102D01*
X186820Y151048D01*
X186048Y151821D01*
X185102Y152367D01*
X184046Y152650D01*
D02*
G37*
G36*
X183000D02*
X182954D01*
X181898Y152367D01*
X180952Y151821D01*
X180180Y151048D01*
X179633Y150102D01*
X179350Y149046D01*
Y149000D01*
X183000D01*
Y152650D01*
D02*
G37*
G36*
X487020Y151453D02*
X487000D01*
Y148000D01*
X490453D01*
Y148020D01*
X490183Y149026D01*
X489663Y149927D01*
X488927Y150663D01*
X488026Y151183D01*
X487020Y151453D01*
D02*
G37*
G36*
X486000D02*
X485980D01*
X484974Y151183D01*
X484073Y150663D01*
X483337Y149927D01*
X482817Y149026D01*
X482547Y148020D01*
Y148000D01*
X486000D01*
Y151453D01*
D02*
G37*
G36*
X315500Y150754D02*
Y147500D01*
X318754D01*
X318500Y148450D01*
X318005Y149306D01*
X317306Y150005D01*
X316450Y150500D01*
X315500Y150754D01*
D02*
G37*
G36*
X314500D02*
X313550Y150500D01*
X312694Y150005D01*
X311995Y149306D01*
X311500Y148450D01*
X311246Y147500D01*
X314500D01*
Y150754D01*
D02*
G37*
G36*
X405500Y149754D02*
Y146500D01*
X408754D01*
X408500Y147450D01*
X408006Y148306D01*
X407306Y149005D01*
X406450Y149500D01*
X405500Y149754D01*
D02*
G37*
G36*
X375500D02*
Y146500D01*
X378754D01*
X378500Y147450D01*
X378006Y148306D01*
X377306Y149005D01*
X376450Y149500D01*
X375500Y149754D01*
D02*
G37*
G36*
X374500D02*
X373550Y149500D01*
X372694Y149005D01*
X371994Y148306D01*
X371500Y147450D01*
X371246Y146500D01*
X374500D01*
Y149754D01*
D02*
G37*
G36*
X404500D02*
X403550Y149500D01*
X402694Y149005D01*
X401995Y148306D01*
X401500Y147450D01*
X401246Y146500D01*
X404500D01*
Y149754D01*
D02*
G37*
G36*
X187650Y148000D02*
X184000D01*
Y144350D01*
X184046D01*
X185102Y144633D01*
X186048Y145179D01*
X186820Y145952D01*
X187367Y146898D01*
X187650Y147954D01*
Y148000D01*
D02*
G37*
G36*
X183000D02*
X179350D01*
Y147954D01*
X179633Y146898D01*
X180180Y145952D01*
X180952Y145179D01*
X181898Y144633D01*
X182954Y144350D01*
X183000D01*
Y148000D01*
D02*
G37*
G36*
X490453Y147000D02*
X487000D01*
Y143547D01*
X487020D01*
X488026Y143817D01*
X488927Y144337D01*
X489663Y145073D01*
X490183Y145974D01*
X490453Y146980D01*
Y147000D01*
D02*
G37*
G36*
X486000D02*
X482547D01*
Y146980D01*
X482817Y145974D01*
X483337Y145073D01*
X484073Y144337D01*
X484974Y143817D01*
X485980Y143547D01*
X486000D01*
Y147000D01*
D02*
G37*
G36*
X318754Y146500D02*
X315500D01*
Y143246D01*
X316450Y143500D01*
X317306Y143994D01*
X318005Y144694D01*
X318500Y145550D01*
X318754Y146500D01*
D02*
G37*
G36*
X314500D02*
X311246D01*
X311500Y145550D01*
X311995Y144694D01*
X312694Y143994D01*
X313550Y143500D01*
X314500Y143246D01*
Y146500D01*
D02*
G37*
G36*
X305494Y150756D02*
X304505D01*
X303550Y150500D01*
X302694Y150005D01*
X301994Y149306D01*
X301500Y148450D01*
X301244Y147494D01*
Y146505D01*
X301500Y145550D01*
X301994Y144694D01*
X302694Y143994D01*
X303550Y143500D01*
X304505Y143244D01*
X305494D01*
X306450Y143500D01*
X307306Y143994D01*
X308005Y144694D01*
X308500Y145550D01*
X308756Y146505D01*
Y147494D01*
X308500Y148450D01*
X308005Y149306D01*
X307306Y150005D01*
X306450Y150500D01*
X305494Y150756D01*
D02*
G37*
G36*
X408754Y145500D02*
X405500D01*
Y142246D01*
X406450Y142500D01*
X407306Y142994D01*
X408006Y143694D01*
X408500Y144550D01*
X408754Y145500D01*
D02*
G37*
G36*
X378754D02*
X375500D01*
Y142246D01*
X376450Y142500D01*
X377306Y142994D01*
X378006Y143694D01*
X378500Y144550D01*
X378754Y145500D01*
D02*
G37*
G36*
X374500D02*
X371246D01*
X371500Y144550D01*
X371994Y143694D01*
X372694Y142994D01*
X373550Y142500D01*
X374500Y142246D01*
Y145500D01*
D02*
G37*
G36*
X404500D02*
X401246D01*
X401500Y144550D01*
X401995Y143694D01*
X402694Y142994D01*
X403550Y142500D01*
X404500Y142246D01*
Y145500D01*
D02*
G37*
G36*
X111500Y136949D02*
Y134000D01*
X114449D01*
X114225Y134836D01*
X113769Y135625D01*
X113125Y136269D01*
X112336Y136725D01*
X111500Y136949D01*
D02*
G37*
G36*
X110500D02*
X109664Y136725D01*
X108875Y136269D01*
X108231Y135625D01*
X107775Y134836D01*
X107551Y134000D01*
X110500D01*
Y136949D01*
D02*
G37*
G36*
X315500Y134394D02*
Y131384D01*
X318510D01*
X318280Y132242D01*
X317816Y133045D01*
X317161Y133700D01*
X316359Y134164D01*
X315500Y134394D01*
D02*
G37*
G36*
X314500D02*
X313641Y134164D01*
X312839Y133700D01*
X312184Y133045D01*
X311720Y132242D01*
X311490Y131384D01*
X314500D01*
Y134394D01*
D02*
G37*
G36*
X114449Y133000D02*
X111500D01*
Y130051D01*
X112336Y130275D01*
X113125Y130731D01*
X113769Y131375D01*
X114225Y132164D01*
X114449Y133000D01*
D02*
G37*
G36*
X110500D02*
X107551D01*
X107775Y132164D01*
X108231Y131375D01*
X108875Y130731D01*
X109664Y130275D01*
X110500Y130051D01*
Y133000D01*
D02*
G37*
G36*
X131494Y152256D02*
X130506D01*
X129550Y152000D01*
X128694Y151505D01*
X127995Y150806D01*
X127500Y149950D01*
X127244Y148995D01*
Y148005D01*
X127500Y147050D01*
X127995Y146194D01*
X128694Y145494D01*
X129471Y145046D01*
Y136613D01*
X128875Y136269D01*
X128231Y135625D01*
X127775Y134836D01*
X127539Y133956D01*
Y133044D01*
X127775Y132164D01*
X128231Y131375D01*
X128875Y130731D01*
X129664Y130275D01*
X130544Y130039D01*
X131456D01*
X132336Y130275D01*
X133125Y130731D01*
X133769Y131375D01*
X134225Y132164D01*
X134461Y133044D01*
Y133956D01*
X134225Y134836D01*
X133769Y135625D01*
X133125Y136269D01*
X132529Y136613D01*
Y145046D01*
X133306Y145494D01*
X134005Y146194D01*
X134500Y147050D01*
X134756Y148005D01*
Y148995D01*
X134500Y149950D01*
X134005Y150806D01*
X133306Y151505D01*
X132450Y152000D01*
X131494Y152256D01*
D02*
G37*
G36*
X121456Y136961D02*
X120544D01*
X119664Y136725D01*
X118875Y136269D01*
X118231Y135625D01*
X117775Y134836D01*
X117539Y133956D01*
Y133044D01*
X117775Y132164D01*
X118231Y131375D01*
X118875Y130731D01*
X119664Y130275D01*
X120544Y130039D01*
X121456D01*
X122336Y130275D01*
X123125Y130731D01*
X123769Y131375D01*
X124225Y132164D01*
X124461Y133044D01*
Y133956D01*
X124225Y134836D01*
X123769Y135625D01*
X123125Y136269D01*
X122336Y136725D01*
X121456Y136961D01*
D02*
G37*
G36*
X101456D02*
X100544D01*
X99664Y136725D01*
X98875Y136269D01*
X98231Y135625D01*
X97775Y134836D01*
X97539Y133956D01*
Y133044D01*
X97775Y132164D01*
X98231Y131375D01*
X98875Y130731D01*
X99664Y130275D01*
X100544Y130039D01*
X101456D01*
X102336Y130275D01*
X103125Y130731D01*
X103769Y131375D01*
X104225Y132164D01*
X104461Y133044D01*
Y133956D01*
X104225Y134836D01*
X103769Y135625D01*
X103125Y136269D01*
X102336Y136725D01*
X101456Y136961D01*
D02*
G37*
G36*
X61456D02*
X60544D01*
X59664Y136725D01*
X58875Y136269D01*
X58231Y135625D01*
X57775Y134836D01*
X57539Y133956D01*
Y133044D01*
X57775Y132164D01*
X58231Y131375D01*
X58875Y130731D01*
X59664Y130275D01*
X60544Y130039D01*
X61456D01*
X62336Y130275D01*
X63125Y130731D01*
X63769Y131375D01*
X64225Y132164D01*
X64461Y133044D01*
Y133956D01*
X64225Y134836D01*
X63769Y135625D01*
X63125Y136269D01*
X62336Y136725D01*
X61456Y136961D01*
D02*
G37*
G36*
X51456D02*
X50544D01*
X49664Y136725D01*
X48875Y136269D01*
X48231Y135625D01*
X47775Y134836D01*
X47539Y133956D01*
Y133044D01*
X47775Y132164D01*
X48231Y131375D01*
X48875Y130731D01*
X49664Y130275D01*
X50544Y130039D01*
X51456D01*
X52336Y130275D01*
X53125Y130731D01*
X53769Y131375D01*
X54225Y132164D01*
X54461Y133044D01*
Y133956D01*
X54225Y134836D01*
X53769Y135625D01*
X53125Y136269D01*
X52336Y136725D01*
X51456Y136961D01*
D02*
G37*
G36*
X41456D02*
X40544D01*
X39664Y136725D01*
X38875Y136269D01*
X38231Y135625D01*
X37775Y134836D01*
X37539Y133956D01*
Y133044D01*
X37775Y132164D01*
X38231Y131375D01*
X38875Y130731D01*
X39664Y130275D01*
X40544Y130039D01*
X41456D01*
X42336Y130275D01*
X43125Y130731D01*
X43769Y131375D01*
X44225Y132164D01*
X44461Y133044D01*
Y133956D01*
X44225Y134836D01*
X43769Y135625D01*
X43125Y136269D01*
X42336Y136725D01*
X41456Y136961D01*
D02*
G37*
G36*
X318510Y130384D02*
X315500D01*
Y127374D01*
X316359Y127604D01*
X317161Y128067D01*
X317816Y128723D01*
X318280Y129525D01*
X318510Y130384D01*
D02*
G37*
G36*
X314500D02*
X311490D01*
X311720Y129525D01*
X312184Y128723D01*
X312839Y128067D01*
X313641Y127604D01*
X314500Y127374D01*
Y130384D01*
D02*
G37*
G36*
X405463Y134404D02*
X404537D01*
X403641Y134164D01*
X402839Y133700D01*
X402184Y133045D01*
X401720Y132242D01*
X401480Y131347D01*
Y130420D01*
X401720Y129525D01*
X402184Y128723D01*
X402839Y128067D01*
X403641Y127604D01*
X404537Y127364D01*
X405463D01*
X406359Y127604D01*
X407161Y128067D01*
X407816Y128723D01*
X408280Y129525D01*
X408520Y130420D01*
Y131347D01*
X408280Y132242D01*
X407816Y133045D01*
X407161Y133700D01*
X406359Y134164D01*
X405463Y134404D01*
D02*
G37*
G36*
X395520Y171953D02*
X394480D01*
X393474Y171683D01*
X392573Y171163D01*
X391837Y170427D01*
X391317Y169526D01*
X391047Y168520D01*
Y167480D01*
X391317Y166474D01*
X391837Y165573D01*
X392573Y164837D01*
X393471Y164319D01*
Y149454D01*
X392694Y149005D01*
X391995Y148306D01*
X391500Y147450D01*
X391244Y146494D01*
Y145505D01*
X391500Y144550D01*
X391995Y143694D01*
X392694Y142994D01*
X393471Y142546D01*
Y134065D01*
X392839Y133700D01*
X392184Y133045D01*
X391720Y132242D01*
X391480Y131347D01*
Y130420D01*
X391669Y129716D01*
X382983Y121029D01*
X377962D01*
X377770Y121491D01*
X383832Y127553D01*
X384537Y127364D01*
X385463D01*
X386359Y127604D01*
X387161Y128067D01*
X387816Y128723D01*
X388280Y129525D01*
X388520Y130420D01*
Y131347D01*
X388280Y132242D01*
X387816Y133045D01*
X387161Y133700D01*
X386529Y134065D01*
Y142546D01*
X387306Y142994D01*
X388005Y143694D01*
X388500Y144550D01*
X388756Y145505D01*
Y146494D01*
X388500Y147450D01*
X388005Y148306D01*
X387306Y149005D01*
X386529Y149454D01*
Y164319D01*
X387427Y164837D01*
X388163Y165573D01*
X388683Y166474D01*
X388953Y167480D01*
Y168520D01*
X388683Y169526D01*
X388163Y170427D01*
X387427Y171163D01*
X386526Y171683D01*
X385520Y171953D01*
X384480D01*
X383474Y171683D01*
X382573Y171163D01*
X381837Y170427D01*
X381317Y169526D01*
X381047Y168520D01*
Y167480D01*
X381317Y166474D01*
X381837Y165573D01*
X382573Y164837D01*
X383471Y164319D01*
Y149454D01*
X382694Y149005D01*
X381995Y148306D01*
X381500Y147450D01*
X381244Y146494D01*
Y145505D01*
X381500Y144550D01*
X381995Y143694D01*
X382694Y142994D01*
X383471Y142546D01*
Y134065D01*
X382839Y133700D01*
X382184Y133045D01*
X381720Y132242D01*
X381480Y131347D01*
Y130420D01*
X381669Y129716D01*
X374983Y123029D01*
X103633D01*
X94283Y132380D01*
X94461Y133044D01*
Y133956D01*
X94225Y134836D01*
X93769Y135625D01*
X93125Y136269D01*
X92336Y136725D01*
X91456Y136961D01*
X90544D01*
X89664Y136725D01*
X88875Y136269D01*
X88231Y135625D01*
X87887Y135029D01*
X84113D01*
X83769Y135625D01*
X83125Y136269D01*
X82336Y136725D01*
X81456Y136961D01*
X80544D01*
X79664Y136725D01*
X78875Y136269D01*
X78231Y135625D01*
X77775Y134836D01*
X77539Y133956D01*
Y133044D01*
X77775Y132164D01*
X78231Y131375D01*
X78875Y130731D01*
X79664Y130275D01*
X80544Y130039D01*
X81456D01*
X82336Y130275D01*
X83125Y130731D01*
X83769Y131375D01*
X84113Y131971D01*
X87887D01*
X88231Y131375D01*
X88875Y130731D01*
X89664Y130275D01*
X90544Y130039D01*
X91456D01*
X92120Y130217D01*
X100846Y121491D01*
X100654Y121029D01*
X85633D01*
X74283Y132380D01*
X74461Y133044D01*
Y133956D01*
X74225Y134836D01*
X73769Y135625D01*
X73125Y136269D01*
X72336Y136725D01*
X71456Y136961D01*
X70544D01*
X69664Y136725D01*
X68875Y136269D01*
X68231Y135625D01*
X67775Y134836D01*
X67539Y133956D01*
Y133044D01*
X67775Y132164D01*
X68231Y131375D01*
X68875Y130731D01*
X69664Y130275D01*
X70544Y130039D01*
X71456D01*
X72120Y130217D01*
X83919Y118419D01*
X84415Y118087D01*
X85000Y117971D01*
X383616D01*
X384201Y118087D01*
X384698Y118419D01*
X393832Y127553D01*
X394537Y127364D01*
X395463D01*
X396359Y127604D01*
X397161Y128067D01*
X397816Y128723D01*
X398280Y129525D01*
X398520Y130420D01*
Y131347D01*
X398280Y132242D01*
X397816Y133045D01*
X397161Y133700D01*
X396529Y134065D01*
Y142546D01*
X397306Y142994D01*
X398006Y143694D01*
X398500Y144550D01*
X398756Y145505D01*
Y146494D01*
X398500Y147450D01*
X398006Y148306D01*
X397306Y149005D01*
X396529Y149454D01*
Y164319D01*
X397427Y164837D01*
X398163Y165573D01*
X398683Y166474D01*
X398953Y167480D01*
Y168520D01*
X398683Y169526D01*
X398163Y170427D01*
X397427Y171163D01*
X396526Y171683D01*
X395520Y171953D01*
D02*
G37*
G36*
X315520Y193953D02*
X314480D01*
X313474Y193683D01*
X312573Y193163D01*
X311837Y192427D01*
X311317Y191526D01*
X311047Y190520D01*
Y189480D01*
X311317Y188474D01*
X311837Y187573D01*
X312573Y186837D01*
X313474Y186317D01*
X314480Y186047D01*
X315520D01*
X316526Y186317D01*
X316803Y186477D01*
X371576Y131703D01*
X371480Y131347D01*
Y130420D01*
X371720Y129525D01*
X372184Y128723D01*
X372839Y128067D01*
X373641Y127604D01*
X374537Y127364D01*
X375463D01*
X376359Y127604D01*
X377161Y128067D01*
X377816Y128723D01*
X378280Y129525D01*
X378520Y130420D01*
Y131347D01*
X378280Y132242D01*
X377816Y133045D01*
X377161Y133700D01*
X376359Y134164D01*
X375463Y134404D01*
X374537D01*
X373641Y134164D01*
X373514Y134090D01*
X318778Y188827D01*
X318953Y189480D01*
Y190520D01*
X318683Y191526D01*
X318163Y192427D01*
X317427Y193163D01*
X316526Y193683D01*
X315520Y193953D01*
D02*
G37*
G36*
X365463Y134404D02*
X364537D01*
X363641Y134164D01*
X362839Y133700D01*
X362184Y133045D01*
X361720Y132242D01*
X361480Y131347D01*
Y130420D01*
X361720Y129525D01*
X362184Y128723D01*
X362839Y128067D01*
X363641Y127604D01*
X364537Y127364D01*
X365463D01*
X366359Y127604D01*
X367161Y128067D01*
X367816Y128723D01*
X368280Y129525D01*
X368520Y130420D01*
Y131347D01*
X368280Y132242D01*
X367816Y133045D01*
X367161Y133700D01*
X366359Y134164D01*
X365463Y134404D01*
D02*
G37*
G36*
X305520Y193953D02*
X304480D01*
X303474Y193683D01*
X302573Y193163D01*
X301837Y192427D01*
X301317Y191526D01*
X301047Y190520D01*
Y189480D01*
X301317Y188474D01*
X301837Y187573D01*
X302573Y186837D01*
X303471Y186319D01*
Y180884D01*
X303587Y180299D01*
X303919Y179802D01*
X351669Y132052D01*
X351480Y131347D01*
Y130420D01*
X351720Y129525D01*
X352184Y128723D01*
X352839Y128067D01*
X353641Y127604D01*
X354537Y127364D01*
X355463D01*
X356359Y127604D01*
X357161Y128067D01*
X357816Y128723D01*
X358280Y129525D01*
X358520Y130420D01*
Y131347D01*
X358280Y132242D01*
X357816Y133045D01*
X357161Y133700D01*
X356359Y134164D01*
X355463Y134404D01*
X354537D01*
X353832Y134215D01*
X306529Y181517D01*
Y186319D01*
X307427Y186837D01*
X308163Y187573D01*
X308683Y188474D01*
X308953Y189480D01*
Y190520D01*
X308683Y191526D01*
X308163Y192427D01*
X307427Y193163D01*
X306526Y193683D01*
X305520Y193953D01*
D02*
G37*
G36*
X345463Y134404D02*
X344537D01*
X343641Y134164D01*
X342839Y133700D01*
X342184Y133045D01*
X341720Y132242D01*
X341480Y131347D01*
Y130420D01*
X341720Y129525D01*
X342184Y128723D01*
X342839Y128067D01*
X343641Y127604D01*
X344537Y127364D01*
X345463D01*
X346359Y127604D01*
X347161Y128067D01*
X347816Y128723D01*
X348280Y129525D01*
X348520Y130420D01*
Y131347D01*
X348280Y132242D01*
X347816Y133045D01*
X347161Y133700D01*
X346359Y134164D01*
X345463Y134404D01*
D02*
G37*
G36*
X335463D02*
X334537D01*
X333641Y134164D01*
X332839Y133700D01*
X332184Y133045D01*
X331720Y132242D01*
X331480Y131347D01*
Y130420D01*
X331720Y129525D01*
X332184Y128723D01*
X332839Y128067D01*
X333641Y127604D01*
X334537Y127364D01*
X335463D01*
X336359Y127604D01*
X337161Y128067D01*
X337816Y128723D01*
X338280Y129525D01*
X338520Y130420D01*
Y131347D01*
X338280Y132242D01*
X337816Y133045D01*
X337161Y133700D01*
X336359Y134164D01*
X335463Y134404D01*
D02*
G37*
G36*
X325463D02*
X324537D01*
X323641Y134164D01*
X322839Y133700D01*
X322184Y133045D01*
X321720Y132242D01*
X321480Y131347D01*
Y130420D01*
X321720Y129525D01*
X322184Y128723D01*
X322839Y128067D01*
X323641Y127604D01*
X324537Y127364D01*
X325463D01*
X326359Y127604D01*
X327161Y128067D01*
X327816Y128723D01*
X328280Y129525D01*
X328520Y130420D01*
Y131347D01*
X328280Y132242D01*
X327816Y133045D01*
X327161Y133700D01*
X326359Y134164D01*
X325463Y134404D01*
D02*
G37*
G36*
X305463D02*
X304537D01*
X303641Y134164D01*
X302839Y133700D01*
X302184Y133045D01*
X301720Y132242D01*
X301480Y131347D01*
Y130420D01*
X301720Y129525D01*
X302184Y128723D01*
X302839Y128067D01*
X303641Y127604D01*
X304537Y127364D01*
X305463D01*
X306359Y127604D01*
X307161Y128067D01*
X307816Y128723D01*
X308280Y129525D01*
X308520Y130420D01*
Y131347D01*
X308280Y132242D01*
X307816Y133045D01*
X307161Y133700D01*
X306359Y134164D01*
X305463Y134404D01*
D02*
G37*
G36*
X295463D02*
X294537D01*
X293641Y134164D01*
X292839Y133700D01*
X292184Y133045D01*
X291720Y132242D01*
X291480Y131347D01*
Y130420D01*
X291720Y129525D01*
X292184Y128723D01*
X292839Y128067D01*
X293641Y127604D01*
X294537Y127364D01*
X295463D01*
X296359Y127604D01*
X297161Y128067D01*
X297816Y128723D01*
X298280Y129525D01*
X298520Y130420D01*
Y131347D01*
X298280Y132242D01*
X297816Y133045D01*
X297161Y133700D01*
X296359Y134164D01*
X295463Y134404D01*
D02*
G37*
G36*
X285463D02*
X284537D01*
X283641Y134164D01*
X282839Y133700D01*
X282184Y133045D01*
X281720Y132242D01*
X281480Y131347D01*
Y130420D01*
X281720Y129525D01*
X282184Y128723D01*
X282839Y128067D01*
X283641Y127604D01*
X284537Y127364D01*
X285463D01*
X286359Y127604D01*
X287161Y128067D01*
X287816Y128723D01*
X288280Y129525D01*
X288520Y130420D01*
Y131347D01*
X288280Y132242D01*
X287816Y133045D01*
X287161Y133700D01*
X286359Y134164D01*
X285463Y134404D01*
D02*
G37*
G36*
X275463D02*
X274537D01*
X273641Y134164D01*
X272839Y133700D01*
X272184Y133045D01*
X271720Y132242D01*
X271480Y131347D01*
Y130420D01*
X271720Y129525D01*
X272184Y128723D01*
X272839Y128067D01*
X273641Y127604D01*
X274537Y127364D01*
X275463D01*
X276359Y127604D01*
X277161Y128067D01*
X277816Y128723D01*
X278280Y129525D01*
X278520Y130420D01*
Y131347D01*
X278280Y132242D01*
X277816Y133045D01*
X277161Y133700D01*
X276359Y134164D01*
X275463Y134404D01*
D02*
G37*
G36*
X265463D02*
X264537D01*
X263641Y134164D01*
X262839Y133700D01*
X262184Y133045D01*
X261720Y132242D01*
X261480Y131347D01*
Y130420D01*
X261720Y129525D01*
X262184Y128723D01*
X262839Y128067D01*
X263641Y127604D01*
X264537Y127364D01*
X265463D01*
X266359Y127604D01*
X267161Y128067D01*
X267816Y128723D01*
X268280Y129525D01*
X268520Y130420D01*
Y131347D01*
X268280Y132242D01*
X267816Y133045D01*
X267161Y133700D01*
X266359Y134164D01*
X265463Y134404D01*
D02*
G37*
G36*
X255463D02*
X254537D01*
X253641Y134164D01*
X252839Y133700D01*
X252184Y133045D01*
X251720Y132242D01*
X251480Y131347D01*
Y130420D01*
X251720Y129525D01*
X252184Y128723D01*
X252839Y128067D01*
X253641Y127604D01*
X254537Y127364D01*
X255463D01*
X256359Y127604D01*
X257161Y128067D01*
X257816Y128723D01*
X258280Y129525D01*
X258520Y130420D01*
Y131347D01*
X258280Y132242D01*
X257816Y133045D01*
X257161Y133700D01*
X256359Y134164D01*
X255463Y134404D01*
D02*
G37*
G36*
X245463D02*
X244537D01*
X243641Y134164D01*
X242839Y133700D01*
X242184Y133045D01*
X241720Y132242D01*
X241480Y131347D01*
Y130420D01*
X241720Y129525D01*
X242184Y128723D01*
X242839Y128067D01*
X243641Y127604D01*
X244537Y127364D01*
X245463D01*
X246359Y127604D01*
X247161Y128067D01*
X247816Y128723D01*
X248280Y129525D01*
X248520Y130420D01*
Y131347D01*
X248280Y132242D01*
X247816Y133045D01*
X247161Y133700D01*
X246359Y134164D01*
X245463Y134404D01*
D02*
G37*
G36*
X235463D02*
X234537D01*
X233641Y134164D01*
X232839Y133700D01*
X232184Y133045D01*
X231720Y132242D01*
X231480Y131347D01*
Y130420D01*
X231720Y129525D01*
X232184Y128723D01*
X232839Y128067D01*
X233641Y127604D01*
X234537Y127364D01*
X235463D01*
X236359Y127604D01*
X237161Y128067D01*
X237816Y128723D01*
X238280Y129525D01*
X238520Y130420D01*
Y131347D01*
X238280Y132242D01*
X237816Y133045D01*
X237161Y133700D01*
X236359Y134164D01*
X235463Y134404D01*
D02*
G37*
G36*
X225463D02*
X224537D01*
X223641Y134164D01*
X222839Y133700D01*
X222184Y133045D01*
X221720Y132242D01*
X221480Y131347D01*
Y130420D01*
X221720Y129525D01*
X222184Y128723D01*
X222839Y128067D01*
X223641Y127604D01*
X224537Y127364D01*
X225463D01*
X226359Y127604D01*
X227161Y128067D01*
X227816Y128723D01*
X228280Y129525D01*
X228520Y130420D01*
Y131347D01*
X228280Y132242D01*
X227816Y133045D01*
X227161Y133700D01*
X226359Y134164D01*
X225463Y134404D01*
D02*
G37*
G36*
X215463D02*
X214537D01*
X213641Y134164D01*
X212839Y133700D01*
X212184Y133045D01*
X211720Y132242D01*
X211480Y131347D01*
Y130420D01*
X211720Y129525D01*
X212184Y128723D01*
X212839Y128067D01*
X213641Y127604D01*
X214537Y127364D01*
X215463D01*
X216359Y127604D01*
X217161Y128067D01*
X217816Y128723D01*
X218280Y129525D01*
X218520Y130420D01*
Y131347D01*
X218280Y132242D01*
X217816Y133045D01*
X217161Y133700D01*
X216359Y134164D01*
X215463Y134404D01*
D02*
G37*
G36*
X194046Y152650D02*
X192954D01*
X191898Y152367D01*
X190952Y151821D01*
X190180Y151048D01*
X189633Y150102D01*
X189350Y149046D01*
Y147954D01*
X189633Y146898D01*
X190180Y145952D01*
X190952Y145179D01*
X191898Y144633D01*
X191971Y144614D01*
Y134454D01*
X191194Y134005D01*
X190495Y133306D01*
X190000Y132450D01*
X189744Y131494D01*
Y130506D01*
X190000Y129550D01*
X190495Y128694D01*
X191194Y127995D01*
X192050Y127500D01*
X193006Y127244D01*
X193994D01*
X194950Y127500D01*
X195806Y127995D01*
X196505Y128694D01*
X197000Y129550D01*
X197256Y130506D01*
Y131494D01*
X197000Y132450D01*
X196505Y133306D01*
X195806Y134005D01*
X195029Y134454D01*
Y144614D01*
X195102Y144633D01*
X196048Y145179D01*
X196820Y145952D01*
X197367Y146898D01*
X197650Y147954D01*
Y149046D01*
X197367Y150102D01*
X196820Y151048D01*
X196048Y151821D01*
X195102Y152367D01*
X194046Y152650D01*
D02*
G37*
G36*
X183994Y134756D02*
X183005D01*
X182050Y134500D01*
X181194Y134005D01*
X180494Y133306D01*
X180000Y132450D01*
X179744Y131494D01*
Y130506D01*
X180000Y129550D01*
X180494Y128694D01*
X181194Y127995D01*
X182050Y127500D01*
X183005Y127244D01*
X183994D01*
X184950Y127500D01*
X185806Y127995D01*
X186505Y128694D01*
X187000Y129550D01*
X187256Y130506D01*
Y131494D01*
X187000Y132450D01*
X186505Y133306D01*
X185806Y134005D01*
X184950Y134500D01*
X183994Y134756D01*
D02*
G37*
G36*
X184000Y104754D02*
Y101500D01*
X187254D01*
X187000Y102450D01*
X186505Y103306D01*
X185806Y104006D01*
X184950Y104500D01*
X184000Y104754D01*
D02*
G37*
G36*
X183000D02*
X182050Y104500D01*
X181194Y104006D01*
X180494Y103306D01*
X180000Y102450D01*
X179746Y101500D01*
X183000D01*
Y104754D01*
D02*
G37*
G36*
X187254Y100500D02*
X184000D01*
Y97246D01*
X184950Y97500D01*
X185806Y97995D01*
X186505Y98694D01*
X187000Y99550D01*
X187254Y100500D01*
D02*
G37*
G36*
X183000D02*
X179746D01*
X180000Y99550D01*
X180494Y98694D01*
X181194Y97995D01*
X182050Y97500D01*
X183000Y97246D01*
Y100500D01*
D02*
G37*
G36*
X193994Y104756D02*
X193006D01*
X192050Y104500D01*
X191194Y104006D01*
X190495Y103306D01*
X190000Y102450D01*
X189744Y101495D01*
Y100505D01*
X190000Y99550D01*
X190495Y98694D01*
X191194Y97995D01*
X192050Y97500D01*
X193006Y97244D01*
X193994D01*
X194950Y97500D01*
X195806Y97995D01*
X196505Y98694D01*
X197000Y99550D01*
X197256Y100505D01*
Y101495D01*
X197000Y102450D01*
X196505Y103306D01*
X195806Y104006D01*
X194950Y104500D01*
X193994Y104756D01*
D02*
G37*
G36*
X490453Y97953D02*
X482547D01*
Y95529D01*
X428884D01*
X428299Y95413D01*
X427802Y95081D01*
X406168Y73447D01*
X405463Y73636D01*
X404537D01*
X403641Y73396D01*
X402839Y72933D01*
X402184Y72277D01*
X401720Y71475D01*
X401480Y70579D01*
Y69653D01*
X401720Y68758D01*
X402184Y67955D01*
X402839Y67300D01*
X403641Y66836D01*
X404537Y66597D01*
X405463D01*
X406359Y66836D01*
X407161Y67300D01*
X407816Y67955D01*
X408280Y68758D01*
X408520Y69653D01*
Y70579D01*
X408331Y71284D01*
X429517Y92471D01*
X482547D01*
Y90047D01*
X490453D01*
Y97953D01*
D02*
G37*
G36*
X487020Y87953D02*
X485980D01*
X484974Y87683D01*
X484073Y87163D01*
X483337Y86427D01*
X482817Y85526D01*
X482547Y84520D01*
Y83480D01*
X482817Y82474D01*
X483337Y81573D01*
X484073Y80837D01*
X484974Y80317D01*
X485980Y80047D01*
X487020D01*
X488026Y80317D01*
X488927Y80837D01*
X489663Y81573D01*
X490183Y82474D01*
X490453Y83480D01*
Y84520D01*
X490183Y85526D01*
X489663Y86427D01*
X488927Y87163D01*
X488026Y87683D01*
X487020Y87953D01*
D02*
G37*
G36*
X193879Y83748D02*
X192838D01*
X191832Y83479D01*
X190931Y82958D01*
X190195Y82222D01*
X189675Y81321D01*
X189406Y80316D01*
Y79275D01*
X189675Y78270D01*
X190195Y77368D01*
X190931Y76632D01*
X191832Y76112D01*
X192838Y75842D01*
X193879D01*
X194884Y76112D01*
X195785Y76632D01*
X196521Y77368D01*
X197042Y78270D01*
X197311Y79275D01*
Y80316D01*
X197042Y81321D01*
X196521Y82222D01*
X195785Y82958D01*
X194884Y83479D01*
X193879Y83748D01*
D02*
G37*
G36*
X176162D02*
X175121D01*
X174116Y83479D01*
X173215Y82958D01*
X172479Y82222D01*
X171958Y81321D01*
X171689Y80316D01*
Y79275D01*
X171958Y78270D01*
X172479Y77368D01*
X173215Y76632D01*
X174116Y76112D01*
X175121Y75842D01*
X176162D01*
X177167Y76112D01*
X178069Y76632D01*
X178805Y77368D01*
X179325Y78270D01*
X179595Y79275D01*
Y80316D01*
X179325Y81321D01*
X178805Y82222D01*
X178069Y82958D01*
X177167Y83479D01*
X176162Y83748D01*
D02*
G37*
G36*
X305500Y73626D02*
Y70616D01*
X308510D01*
X308280Y71475D01*
X307816Y72277D01*
X307161Y72933D01*
X306359Y73396D01*
X305500Y73626D01*
D02*
G37*
G36*
X304500D02*
X303641Y73396D01*
X302839Y72933D01*
X302184Y72277D01*
X301720Y71475D01*
X301490Y70616D01*
X304500D01*
Y73626D01*
D02*
G37*
G36*
X487020Y77953D02*
X485980D01*
X484974Y77683D01*
X484073Y77163D01*
X483337Y76427D01*
X482817Y75526D01*
X482547Y74520D01*
Y73480D01*
X482817Y72474D01*
X483337Y71573D01*
X484073Y70837D01*
X484974Y70317D01*
X485980Y70047D01*
X487020D01*
X488026Y70317D01*
X488927Y70837D01*
X489663Y71573D01*
X490183Y72474D01*
X490453Y73480D01*
Y74520D01*
X490183Y75526D01*
X489663Y76427D01*
X488927Y77163D01*
X488026Y77683D01*
X487020Y77953D01*
D02*
G37*
G36*
X308510Y69616D02*
X305500D01*
Y66606D01*
X306359Y66836D01*
X307161Y67300D01*
X307816Y67955D01*
X308280Y68758D01*
X308510Y69616D01*
D02*
G37*
G36*
X304500D02*
X301490D01*
X301720Y68758D01*
X302184Y67955D01*
X302839Y67300D01*
X303641Y66836D01*
X304500Y66606D01*
Y69616D01*
D02*
G37*
G36*
X335463Y73636D02*
X334537D01*
X333641Y73396D01*
X332839Y72933D01*
X332184Y72277D01*
X331720Y71475D01*
X331480Y70579D01*
Y69653D01*
X331720Y68758D01*
X332184Y67955D01*
X332839Y67300D01*
X333641Y66836D01*
X334537Y66597D01*
X335463D01*
X336359Y66836D01*
X337161Y67300D01*
X337816Y67955D01*
X338280Y68758D01*
X338520Y69653D01*
Y70579D01*
X338280Y71475D01*
X337816Y72277D01*
X337161Y72933D01*
X336359Y73396D01*
X335463Y73636D01*
D02*
G37*
G36*
X325463D02*
X324537D01*
X323641Y73396D01*
X322839Y72933D01*
X322184Y72277D01*
X321720Y71475D01*
X321480Y70579D01*
Y69653D01*
X321720Y68758D01*
X322184Y67955D01*
X322839Y67300D01*
X323641Y66836D01*
X324537Y66597D01*
X325463D01*
X326359Y66836D01*
X327161Y67300D01*
X327816Y67955D01*
X328280Y68758D01*
X328520Y69653D01*
Y70579D01*
X328280Y71475D01*
X327816Y72277D01*
X327161Y72933D01*
X326359Y73396D01*
X325463Y73636D01*
D02*
G37*
G36*
X315463D02*
X314537D01*
X313641Y73396D01*
X312839Y72933D01*
X312184Y72277D01*
X311720Y71475D01*
X311480Y70579D01*
Y69653D01*
X311720Y68758D01*
X312184Y67955D01*
X312839Y67300D01*
X313641Y66836D01*
X314537Y66597D01*
X315463D01*
X316359Y66836D01*
X317161Y67300D01*
X317816Y67955D01*
X318280Y68758D01*
X318520Y69653D01*
Y70579D01*
X318280Y71475D01*
X317816Y72277D01*
X317161Y72933D01*
X316359Y73396D01*
X315463Y73636D01*
D02*
G37*
G36*
X295463D02*
X294537D01*
X293641Y73396D01*
X292839Y72933D01*
X292184Y72277D01*
X291720Y71475D01*
X291480Y70579D01*
Y69653D01*
X291720Y68758D01*
X292184Y67955D01*
X292839Y67300D01*
X293641Y66836D01*
X294537Y66597D01*
X295463D01*
X296359Y66836D01*
X297161Y67300D01*
X297816Y67955D01*
X298280Y68758D01*
X298520Y69653D01*
Y70579D01*
X298280Y71475D01*
X297816Y72277D01*
X297161Y72933D01*
X296359Y73396D01*
X295463Y73636D01*
D02*
G37*
G36*
X487020Y141453D02*
X485980D01*
X484974Y141183D01*
X484073Y140663D01*
X483337Y139927D01*
X482817Y139026D01*
X482547Y138020D01*
Y136980D01*
X482816Y135978D01*
X449367Y102529D01*
X375884D01*
X375299Y102413D01*
X374802Y102081D01*
X346168Y73447D01*
X345463Y73636D01*
X344537D01*
X343641Y73396D01*
X342839Y72933D01*
X342184Y72277D01*
X341720Y71475D01*
X341480Y70579D01*
Y69653D01*
X341720Y68758D01*
X342184Y67955D01*
X342839Y67300D01*
X343641Y66836D01*
X344537Y66597D01*
X345463D01*
X346359Y66836D01*
X347161Y67300D01*
X347816Y67955D01*
X348280Y68758D01*
X348520Y69653D01*
Y70579D01*
X348331Y71284D01*
X376517Y99471D01*
X381538D01*
X381730Y99009D01*
X356168Y73447D01*
X355463Y73636D01*
X354537D01*
X353641Y73396D01*
X352839Y72933D01*
X352184Y72277D01*
X351720Y71475D01*
X351480Y70579D01*
Y69653D01*
X351720Y68758D01*
X352184Y67955D01*
X352839Y67300D01*
X353641Y66836D01*
X354537Y66597D01*
X355463D01*
X356359Y66836D01*
X357161Y67300D01*
X357816Y67955D01*
X358280Y68758D01*
X358520Y69653D01*
Y70579D01*
X358331Y71284D01*
X384243Y97196D01*
X457725D01*
X458311Y97312D01*
X458807Y97644D01*
X482085Y120922D01*
X482547Y120731D01*
Y113547D01*
X490453D01*
Y120731D01*
X490915Y120922D01*
X492471Y119367D01*
Y72133D01*
X488022Y67685D01*
X487020Y67953D01*
X485980D01*
X484974Y67683D01*
X484073Y67163D01*
X483337Y66427D01*
X482817Y65526D01*
X482547Y64520D01*
Y63480D01*
X482817Y62474D01*
X483337Y61573D01*
X484073Y60837D01*
X484974Y60317D01*
X485980Y60047D01*
X487020D01*
X488026Y60317D01*
X488927Y60837D01*
X489663Y61573D01*
X490183Y62474D01*
X490453Y63480D01*
Y64520D01*
X490184Y65522D01*
X494009Y69346D01*
X494471Y69154D01*
Y64134D01*
X488022Y57684D01*
X487020Y57953D01*
X485980D01*
X484974Y57683D01*
X484073Y57163D01*
X483337Y56427D01*
X482817Y55526D01*
X482547Y54520D01*
Y53480D01*
X482817Y52474D01*
X483337Y51573D01*
X484073Y50837D01*
X484974Y50317D01*
X485980Y50047D01*
X487020D01*
X488026Y50317D01*
X488927Y50837D01*
X489663Y51573D01*
X490183Y52474D01*
X490453Y53480D01*
Y54520D01*
X490184Y55522D01*
X497081Y62419D01*
X497413Y62915D01*
X497529Y63500D01*
Y128000D01*
X497413Y128585D01*
X497081Y129081D01*
X490184Y135978D01*
X490453Y136980D01*
Y138020D01*
X490183Y139026D01*
X489663Y139927D01*
X488927Y140663D01*
X488026Y141183D01*
X487020Y141453D01*
D02*
G37*
G36*
X311000Y59254D02*
Y56000D01*
X314254D01*
X314000Y56950D01*
X313506Y57806D01*
X312806Y58505D01*
X311950Y59000D01*
X311000Y59254D01*
D02*
G37*
G36*
X310000D02*
X309050Y59000D01*
X308194Y58505D01*
X307494Y57806D01*
X307000Y56950D01*
X306746Y56000D01*
X310000D01*
Y59254D01*
D02*
G37*
G36*
X314254Y55000D02*
X311000D01*
Y51746D01*
X311950Y52000D01*
X312806Y52495D01*
X313506Y53194D01*
X314000Y54050D01*
X314254Y55000D01*
D02*
G37*
G36*
X310000D02*
X306746D01*
X307000Y54050D01*
X307494Y53194D01*
X308194Y52495D01*
X309050Y52000D01*
X310000Y51746D01*
Y55000D01*
D02*
G37*
G36*
X320994Y59256D02*
X320005D01*
X319050Y59000D01*
X318194Y58505D01*
X317495Y57806D01*
X317000Y56950D01*
X316744Y55994D01*
Y55006D01*
X317000Y54050D01*
X317495Y53194D01*
X318194Y52495D01*
X319050Y52000D01*
X320005Y51744D01*
X320994D01*
X321950Y52000D01*
X322806Y52495D01*
X323505Y53194D01*
X324000Y54050D01*
X324256Y55006D01*
Y55994D01*
X324000Y56950D01*
X323505Y57806D01*
X322806Y58505D01*
X321950Y59000D01*
X320994Y59256D01*
D02*
G37*
G36*
X193879Y58157D02*
X192838D01*
X191832Y57888D01*
X190931Y57368D01*
X190195Y56632D01*
X189675Y55730D01*
X189406Y54725D01*
Y53684D01*
X189675Y52679D01*
X190195Y51778D01*
X190931Y51042D01*
X191832Y50521D01*
X192838Y50252D01*
X193879D01*
X194884Y50521D01*
X195785Y51042D01*
X196521Y51778D01*
X197042Y52679D01*
X197311Y53684D01*
Y54725D01*
X197042Y55730D01*
X196521Y56632D01*
X195785Y57368D01*
X194884Y57888D01*
X193879Y58157D01*
D02*
G37*
G36*
X179595D02*
X171689D01*
Y50252D01*
X179595D01*
Y58157D01*
D02*
G37*
G36*
X245463Y73636D02*
X244537D01*
X243641Y73396D01*
X242839Y72933D01*
X242184Y72277D01*
X241720Y71475D01*
X241480Y70579D01*
Y69653D01*
X241720Y68758D01*
X242184Y67955D01*
X242839Y67300D01*
X243641Y66836D01*
X244537Y66597D01*
X245463D01*
X246168Y66785D01*
X256331Y56622D01*
Y56085D01*
X256194Y56006D01*
X255494Y55306D01*
X255000Y54450D01*
X254744Y53495D01*
Y52505D01*
X255000Y51550D01*
X255494Y50694D01*
X256194Y49995D01*
X257050Y49500D01*
X258005Y49244D01*
X258995D01*
X259950Y49500D01*
X260806Y49995D01*
X261506Y50694D01*
X262000Y51550D01*
X262256Y52505D01*
Y53495D01*
X262000Y54450D01*
X261506Y55306D01*
X260806Y56006D01*
X259950Y56500D01*
X259390Y56650D01*
Y57256D01*
X259273Y57841D01*
X258942Y58337D01*
X248331Y68948D01*
X248520Y69653D01*
Y70579D01*
X248280Y71475D01*
X247816Y72277D01*
X247161Y72933D01*
X246359Y73396D01*
X245463Y73636D01*
D02*
G37*
G36*
X235463D02*
X234537D01*
X233641Y73396D01*
X232839Y72933D01*
X232184Y72277D01*
X231720Y71475D01*
X231480Y70579D01*
Y69653D01*
X231720Y68758D01*
X232184Y67955D01*
X232839Y67300D01*
X233471Y66935D01*
Y62000D01*
X233587Y61415D01*
X233919Y60919D01*
X240476Y54361D01*
X240244Y53495D01*
Y52505D01*
X240500Y51550D01*
X240995Y50694D01*
X241694Y49995D01*
X242550Y49500D01*
X243506Y49244D01*
X244495D01*
X245450Y49500D01*
X246306Y49995D01*
X247006Y50694D01*
X247500Y51550D01*
X247756Y52505D01*
Y53495D01*
X247500Y54450D01*
X247006Y55306D01*
X246306Y56006D01*
X245450Y56500D01*
X244495Y56756D01*
X243506D01*
X242639Y56524D01*
X236529Y62634D01*
Y66935D01*
X237161Y67300D01*
X237816Y67955D01*
X238280Y68758D01*
X238520Y69653D01*
Y70579D01*
X238280Y71475D01*
X237816Y72277D01*
X237161Y72933D01*
X236359Y73396D01*
X235463Y73636D01*
D02*
G37*
G36*
X225463D02*
X224537D01*
X223641Y73396D01*
X222839Y72933D01*
X222184Y72277D01*
X221720Y71475D01*
X221480Y70579D01*
Y69653D01*
X221720Y68758D01*
X222184Y67955D01*
X222839Y67300D01*
X223471Y66935D01*
Y57500D01*
X223587Y56915D01*
X223919Y56419D01*
X225976Y54361D01*
X225744Y53495D01*
Y52505D01*
X226000Y51550D01*
X226495Y50694D01*
X227194Y49995D01*
X228050Y49500D01*
X229006Y49244D01*
X229995D01*
X230950Y49500D01*
X231806Y49995D01*
X232505Y50694D01*
X233000Y51550D01*
X233256Y52505D01*
Y53495D01*
X233000Y54450D01*
X232505Y55306D01*
X231806Y56006D01*
X230950Y56500D01*
X229995Y56756D01*
X229006D01*
X228139Y56524D01*
X226529Y58134D01*
Y66935D01*
X227161Y67300D01*
X227816Y67955D01*
X228280Y68758D01*
X228520Y69653D01*
Y70579D01*
X228280Y71475D01*
X227816Y72277D01*
X227161Y72933D01*
X226359Y73396D01*
X225463Y73636D01*
D02*
G37*
G36*
X218520D02*
X211480D01*
Y66597D01*
X213471D01*
Y56454D01*
X212694Y56006D01*
X211995Y55306D01*
X211500Y54450D01*
X211244Y53495D01*
Y52505D01*
X211500Y51550D01*
X211995Y50694D01*
X212694Y49995D01*
X213550Y49500D01*
X214506Y49244D01*
X215494D01*
X216450Y49500D01*
X217306Y49995D01*
X218005Y50694D01*
X218500Y51550D01*
X218756Y52505D01*
Y53495D01*
X218500Y54450D01*
X218005Y55306D01*
X217306Y56006D01*
X216529Y56454D01*
Y66597D01*
X218520D01*
Y73636D01*
D02*
G37*
G36*
X285463D02*
X284537D01*
X283641Y73396D01*
X282839Y72933D01*
X282184Y72277D01*
X281720Y71475D01*
X281480Y70579D01*
Y69653D01*
X281720Y68758D01*
X282184Y67955D01*
X282839Y67300D01*
X283641Y66836D01*
X284537Y66597D01*
X285463D01*
X286168Y66785D01*
X310924Y42029D01*
X310717Y41529D01*
X305750D01*
X278331Y68948D01*
X278520Y69653D01*
Y70579D01*
X278280Y71475D01*
X277816Y72277D01*
X277161Y72933D01*
X276359Y73396D01*
X275463Y73636D01*
X274537D01*
X273641Y73396D01*
X272839Y72933D01*
X272184Y72277D01*
X271720Y71475D01*
X271480Y70579D01*
Y69653D01*
X271720Y68758D01*
X272184Y67955D01*
X272839Y67300D01*
X273641Y66836D01*
X274537Y66597D01*
X275463D01*
X276168Y66785D01*
X302962Y39991D01*
X302771Y39529D01*
X297750D01*
X268331Y68948D01*
X268520Y69653D01*
Y70579D01*
X268280Y71475D01*
X267816Y72277D01*
X267161Y72933D01*
X266359Y73396D01*
X265463Y73636D01*
X264537D01*
X263641Y73396D01*
X262839Y72933D01*
X262184Y72277D01*
X261720Y71475D01*
X261480Y70579D01*
Y69653D01*
X261720Y68758D01*
X262184Y67955D01*
X262839Y67300D01*
X263641Y66836D01*
X264537Y66597D01*
X265463D01*
X266168Y66785D01*
X294962Y37991D01*
X294771Y37529D01*
X289750D01*
X258331Y68948D01*
X258520Y69653D01*
Y70579D01*
X258280Y71475D01*
X257816Y72277D01*
X257161Y72933D01*
X256359Y73396D01*
X255463Y73636D01*
X254537D01*
X253641Y73396D01*
X252839Y72933D01*
X252184Y72277D01*
X251720Y71475D01*
X251480Y70579D01*
Y69653D01*
X251720Y68758D01*
X252184Y67955D01*
X252839Y67300D01*
X253641Y66836D01*
X254537Y66597D01*
X255463D01*
X256168Y66785D01*
X286962Y35991D01*
X286771Y35529D01*
X268133D01*
X262024Y41639D01*
X262256Y42505D01*
Y43494D01*
X262000Y44450D01*
X261506Y45306D01*
X260806Y46005D01*
X259950Y46500D01*
X258995Y46756D01*
X258005D01*
X257050Y46500D01*
X256194Y46005D01*
X255494Y45306D01*
X255000Y44450D01*
X254768Y43583D01*
X254298Y43347D01*
X253563Y44081D01*
X253066Y44413D01*
X252481Y44529D01*
X247454D01*
X247006Y45306D01*
X246306Y46005D01*
X245450Y46500D01*
X244495Y46756D01*
X243506D01*
X242550Y46500D01*
X241694Y46005D01*
X240995Y45306D01*
X240500Y44450D01*
X240268Y43583D01*
X239798Y43347D01*
X239063Y44081D01*
X238566Y44413D01*
X237981Y44529D01*
X232954D01*
X232505Y45306D01*
X231806Y46005D01*
X230950Y46500D01*
X229995Y46756D01*
X229006D01*
X228050Y46500D01*
X227194Y46005D01*
X226495Y45306D01*
X226000Y44450D01*
X225768Y43583D01*
X225298Y43347D01*
X224563Y44081D01*
X224066Y44413D01*
X223481Y44529D01*
X218454D01*
X218005Y45306D01*
X217306Y46005D01*
X216450Y46500D01*
X215494Y46756D01*
X214506D01*
X213550Y46500D01*
X212694Y46005D01*
X211995Y45306D01*
X211500Y44450D01*
X211244Y43494D01*
Y42505D01*
X211500Y41550D01*
X211995Y40694D01*
X212694Y39994D01*
X213550Y39500D01*
X214506Y39244D01*
X215494D01*
X216450Y39500D01*
X217306Y39994D01*
X218005Y40694D01*
X218454Y41471D01*
X222848D01*
X237855Y26463D01*
X238351Y26132D01*
X238936Y26015D01*
X284971D01*
X299197Y11790D01*
Y6047D01*
X307102D01*
Y13231D01*
X307564Y13422D01*
X309465Y11522D01*
X309197Y10520D01*
Y9480D01*
X309466Y8474D01*
X309987Y7573D01*
X310723Y6837D01*
X311624Y6317D01*
X312629Y6047D01*
X313670D01*
X314675Y6317D01*
X315577Y6837D01*
X316313Y7573D01*
X316833Y8474D01*
X317102Y9480D01*
Y10520D01*
X316833Y11526D01*
X316313Y12427D01*
X315577Y13163D01*
X314675Y13683D01*
X313670Y13953D01*
X312629D01*
X311628Y13684D01*
X295759Y29553D01*
X295950Y30015D01*
X300971D01*
X319465Y11522D01*
X319197Y10520D01*
Y9480D01*
X319466Y8474D01*
X319987Y7573D01*
X320723Y6837D01*
X321624Y6317D01*
X322629Y6047D01*
X323670D01*
X324675Y6317D01*
X325577Y6837D01*
X326313Y7573D01*
X326833Y8474D01*
X327102Y9480D01*
Y10520D01*
X326833Y11526D01*
X326313Y12427D01*
X325577Y13163D01*
X324675Y13683D01*
X323670Y13953D01*
X322629D01*
X321628Y13684D01*
X303304Y32009D01*
X303495Y32471D01*
X308516D01*
X329465Y11522D01*
X329197Y10520D01*
Y9480D01*
X329466Y8474D01*
X329987Y7573D01*
X330723Y6837D01*
X331624Y6317D01*
X332629Y6047D01*
X333670D01*
X334675Y6317D01*
X335577Y6837D01*
X336313Y7573D01*
X336833Y8474D01*
X337102Y9480D01*
Y10520D01*
X336833Y11526D01*
X336313Y12427D01*
X335577Y13163D01*
X334675Y13683D01*
X333670Y13953D01*
X332629D01*
X331628Y13684D01*
X311304Y34009D01*
X311495Y34471D01*
X316516D01*
X339465Y11522D01*
X339197Y10520D01*
Y9480D01*
X339466Y8474D01*
X339987Y7573D01*
X340723Y6837D01*
X341624Y6317D01*
X342629Y6047D01*
X343670D01*
X344675Y6317D01*
X345577Y6837D01*
X346313Y7573D01*
X346833Y8474D01*
X347102Y9480D01*
Y10520D01*
X346833Y11526D01*
X346313Y12427D01*
X345577Y13163D01*
X344675Y13683D01*
X343670Y13953D01*
X342629D01*
X341628Y13684D01*
X319304Y36009D01*
X319495Y36471D01*
X324516D01*
X349465Y11522D01*
X349197Y10520D01*
Y9480D01*
X349466Y8474D01*
X349987Y7573D01*
X350723Y6837D01*
X351624Y6317D01*
X352629Y6047D01*
X353670D01*
X354675Y6317D01*
X355577Y6837D01*
X356313Y7573D01*
X356833Y8474D01*
X357102Y9480D01*
Y10520D01*
X356833Y11526D01*
X356313Y12427D01*
X355577Y13163D01*
X354675Y13683D01*
X353670Y13953D01*
X352629D01*
X351628Y13684D01*
X327304Y38009D01*
X327495Y38471D01*
X332516D01*
X359465Y11522D01*
X359197Y10520D01*
Y9480D01*
X359466Y8474D01*
X359987Y7573D01*
X360723Y6837D01*
X361624Y6317D01*
X362629Y6047D01*
X363670D01*
X364675Y6317D01*
X365577Y6837D01*
X366313Y7573D01*
X366833Y8474D01*
X367102Y9480D01*
Y10520D01*
X366833Y11526D01*
X366313Y12427D01*
X365577Y13163D01*
X364675Y13683D01*
X363670Y13953D01*
X362629D01*
X361628Y13684D01*
X334804Y40509D01*
X334995Y40971D01*
X340016D01*
X369465Y11522D01*
X369197Y10520D01*
Y9480D01*
X369466Y8474D01*
X369987Y7573D01*
X370723Y6837D01*
X371624Y6317D01*
X372629Y6047D01*
X373670D01*
X374675Y6317D01*
X375577Y6837D01*
X376313Y7573D01*
X376833Y8474D01*
X377102Y9480D01*
Y10520D01*
X376833Y11526D01*
X376313Y12427D01*
X375577Y13163D01*
X374675Y13683D01*
X373670Y13953D01*
X372629D01*
X371628Y13684D01*
X342024Y43288D01*
X341731Y43581D01*
X341235Y43913D01*
X340650Y44029D01*
X313250D01*
X288331Y68948D01*
X288520Y69653D01*
Y70579D01*
X288280Y71475D01*
X287816Y72277D01*
X287161Y72933D01*
X286359Y73396D01*
X285463Y73636D01*
D02*
G37*
G36*
X487020Y47953D02*
X485980D01*
X484974Y47683D01*
X484073Y47163D01*
X483337Y46427D01*
X482817Y45526D01*
X482547Y44520D01*
Y43480D01*
X482817Y42474D01*
X483337Y41573D01*
X484073Y40837D01*
X484974Y40317D01*
X485980Y40047D01*
X487020D01*
X488026Y40317D01*
X488927Y40837D01*
X489663Y41573D01*
X490183Y42474D01*
X490453Y43480D01*
Y44520D01*
X490183Y45526D01*
X489663Y46427D01*
X488927Y47163D01*
X488026Y47683D01*
X487020Y47953D01*
D02*
G37*
G36*
X131456Y36961D02*
X130544D01*
X129664Y36725D01*
X128875Y36269D01*
X128231Y35625D01*
X127775Y34836D01*
X127539Y33956D01*
Y33044D01*
X127775Y32164D01*
X128231Y31375D01*
X128875Y30731D01*
X129664Y30275D01*
X130544Y30039D01*
X131456D01*
X132336Y30275D01*
X133125Y30731D01*
X133769Y31375D01*
X134225Y32164D01*
X134461Y33044D01*
Y33956D01*
X134225Y34836D01*
X133769Y35625D01*
X133125Y36269D01*
X132336Y36725D01*
X131456Y36961D01*
D02*
G37*
G36*
X121456D02*
X120544D01*
X119664Y36725D01*
X118875Y36269D01*
X118231Y35625D01*
X117775Y34836D01*
X117539Y33956D01*
Y33044D01*
X117775Y32164D01*
X118231Y31375D01*
X118875Y30731D01*
X119664Y30275D01*
X120544Y30039D01*
X121456D01*
X122336Y30275D01*
X123125Y30731D01*
X123769Y31375D01*
X124225Y32164D01*
X124461Y33044D01*
Y33956D01*
X124225Y34836D01*
X123769Y35625D01*
X123125Y36269D01*
X122336Y36725D01*
X121456Y36961D01*
D02*
G37*
G36*
X51456D02*
X50544D01*
X49664Y36725D01*
X48875Y36269D01*
X48231Y35625D01*
X47775Y34836D01*
X47539Y33956D01*
Y33044D01*
X47775Y32164D01*
X48231Y31375D01*
X48875Y30731D01*
X49664Y30275D01*
X50544Y30039D01*
X51456D01*
X52336Y30275D01*
X53125Y30731D01*
X53769Y31375D01*
X54225Y32164D01*
X54461Y33044D01*
Y33956D01*
X54225Y34836D01*
X53769Y35625D01*
X53125Y36269D01*
X52336Y36725D01*
X51456Y36961D01*
D02*
G37*
G36*
X44461D02*
X37539D01*
Y30039D01*
X44461D01*
Y36961D01*
D02*
G37*
G36*
X375463Y73636D02*
X374537D01*
X373641Y73396D01*
X372839Y72933D01*
X372184Y72277D01*
X371720Y71475D01*
X371480Y70579D01*
Y69653D01*
X371720Y68758D01*
X372184Y67955D01*
X372839Y67300D01*
X373471Y66935D01*
Y38500D01*
X373587Y37915D01*
X373919Y37419D01*
X396922Y14415D01*
X396731Y13953D01*
X391710D01*
X366529Y39134D01*
Y66935D01*
X367161Y67300D01*
X367816Y67955D01*
X368280Y68758D01*
X368520Y69653D01*
Y70579D01*
X368280Y71475D01*
X367816Y72277D01*
X367161Y72933D01*
X366359Y73396D01*
X365463Y73636D01*
X364537D01*
X363641Y73396D01*
X362839Y72933D01*
X362184Y72277D01*
X361720Y71475D01*
X361480Y70579D01*
Y69653D01*
X361720Y68758D01*
X362184Y67955D01*
X362839Y67300D01*
X363471Y66935D01*
Y38500D01*
X363587Y37915D01*
X363919Y37419D01*
X389547Y11790D01*
Y6047D01*
X397453D01*
Y13231D01*
X397915Y13422D01*
X399816Y11522D01*
X399547Y10520D01*
Y9480D01*
X399817Y8474D01*
X400337Y7573D01*
X401073Y6837D01*
X401974Y6317D01*
X402980Y6047D01*
X404020D01*
X405026Y6317D01*
X405927Y6837D01*
X406663Y7573D01*
X407183Y8474D01*
X407453Y9480D01*
Y10520D01*
X407183Y11526D01*
X406663Y12427D01*
X405927Y13163D01*
X405026Y13683D01*
X404020Y13953D01*
X402980D01*
X401978Y13684D01*
X376529Y39134D01*
Y66935D01*
X377161Y67300D01*
X377816Y67955D01*
X378280Y68758D01*
X378520Y69653D01*
Y70579D01*
X378280Y71475D01*
X377816Y72277D01*
X377161Y72933D01*
X376359Y73396D01*
X375463Y73636D01*
D02*
G37*
G36*
X464020Y13953D02*
X462980D01*
X461974Y13683D01*
X461073Y13163D01*
X460337Y12427D01*
X459817Y11526D01*
X459547Y10520D01*
Y9480D01*
X459817Y8474D01*
X460337Y7573D01*
X461073Y6837D01*
X461974Y6317D01*
X462980Y6047D01*
X464020D01*
X465026Y6317D01*
X465927Y6837D01*
X466663Y7573D01*
X467183Y8474D01*
X467453Y9480D01*
Y10520D01*
X467183Y11526D01*
X466663Y12427D01*
X465927Y13163D01*
X465026Y13683D01*
X464020Y13953D01*
D02*
G37*
G36*
X454020D02*
X452980D01*
X451974Y13683D01*
X451073Y13163D01*
X450337Y12427D01*
X449817Y11526D01*
X449547Y10520D01*
Y9480D01*
X449817Y8474D01*
X450337Y7573D01*
X451073Y6837D01*
X451974Y6317D01*
X452980Y6047D01*
X454020D01*
X455026Y6317D01*
X455927Y6837D01*
X456663Y7573D01*
X457183Y8474D01*
X457453Y9480D01*
Y10520D01*
X457183Y11526D01*
X456663Y12427D01*
X455927Y13163D01*
X455026Y13683D01*
X454020Y13953D01*
D02*
G37*
G36*
X444020D02*
X442980D01*
X441974Y13683D01*
X441073Y13163D01*
X440337Y12427D01*
X439817Y11526D01*
X439547Y10520D01*
Y9480D01*
X439817Y8474D01*
X440337Y7573D01*
X441073Y6837D01*
X441974Y6317D01*
X442980Y6047D01*
X444020D01*
X445026Y6317D01*
X445927Y6837D01*
X446663Y7573D01*
X447183Y8474D01*
X447453Y9480D01*
Y10520D01*
X447183Y11526D01*
X446663Y12427D01*
X445927Y13163D01*
X445026Y13683D01*
X444020Y13953D01*
D02*
G37*
G36*
X434020D02*
X432980D01*
X431974Y13683D01*
X431073Y13163D01*
X430337Y12427D01*
X429817Y11526D01*
X429547Y10520D01*
Y9480D01*
X429817Y8474D01*
X430337Y7573D01*
X431073Y6837D01*
X431974Y6317D01*
X432980Y6047D01*
X434020D01*
X435026Y6317D01*
X435927Y6837D01*
X436663Y7573D01*
X437183Y8474D01*
X437453Y9480D01*
Y10520D01*
X437183Y11526D01*
X436663Y12427D01*
X435927Y13163D01*
X435026Y13683D01*
X434020Y13953D01*
D02*
G37*
G36*
X395463Y73636D02*
X394537D01*
X393641Y73396D01*
X392839Y72933D01*
X392184Y72277D01*
X391720Y71475D01*
X391480Y70579D01*
Y69653D01*
X391720Y68758D01*
X392184Y67955D01*
X392839Y67300D01*
X393471Y66935D01*
Y38500D01*
X393587Y37915D01*
X393919Y37419D01*
X419815Y11522D01*
X419547Y10520D01*
Y9480D01*
X419817Y8474D01*
X420337Y7573D01*
X421073Y6837D01*
X421974Y6317D01*
X422980Y6047D01*
X424020D01*
X425026Y6317D01*
X425927Y6837D01*
X426663Y7573D01*
X427183Y8474D01*
X427453Y9480D01*
Y10520D01*
X427183Y11526D01*
X426663Y12427D01*
X425927Y13163D01*
X425026Y13683D01*
X424020Y13953D01*
X422980D01*
X421978Y13684D01*
X396529Y39134D01*
Y66935D01*
X397161Y67300D01*
X397816Y67955D01*
X398280Y68758D01*
X398520Y69653D01*
Y70579D01*
X398280Y71475D01*
X397816Y72277D01*
X397161Y72933D01*
X396359Y73396D01*
X395463Y73636D01*
D02*
G37*
G36*
X385463D02*
X384537D01*
X383641Y73396D01*
X382839Y72933D01*
X382184Y72277D01*
X381720Y71475D01*
X381480Y70579D01*
Y69653D01*
X381720Y68758D01*
X382184Y67955D01*
X382839Y67300D01*
X383471Y66935D01*
Y38500D01*
X383587Y37915D01*
X383919Y37419D01*
X409816Y11522D01*
X409547Y10520D01*
Y9480D01*
X409817Y8474D01*
X410337Y7573D01*
X411073Y6837D01*
X411974Y6317D01*
X412980Y6047D01*
X414020D01*
X415026Y6317D01*
X415927Y6837D01*
X416663Y7573D01*
X417183Y8474D01*
X417453Y9480D01*
Y10520D01*
X417183Y11526D01*
X416663Y12427D01*
X415927Y13163D01*
X415026Y13683D01*
X414020Y13953D01*
X412980D01*
X411978Y13684D01*
X386529Y39134D01*
Y66935D01*
X387161Y67300D01*
X387816Y67955D01*
X388280Y68758D01*
X388520Y69653D01*
Y70579D01*
X388280Y71475D01*
X387816Y72277D01*
X387161Y72933D01*
X386359Y73396D01*
X385463Y73636D01*
D02*
G37*
G36*
X492185Y24000D02*
X490215D01*
X488283Y23616D01*
X486463Y22862D01*
X484825Y21768D01*
X483432Y20375D01*
X482338Y18737D01*
X481584Y16917D01*
X481200Y14985D01*
Y13015D01*
X481584Y11083D01*
X482338Y9263D01*
X483432Y7625D01*
X484825Y6233D01*
X486463Y5138D01*
X488283Y4384D01*
X490215Y4000D01*
X492185D01*
X494117Y4384D01*
X495937Y5138D01*
X497575Y6233D01*
X498968Y7625D01*
X500062Y9263D01*
X500816Y11083D01*
X501200Y13015D01*
Y14985D01*
X500816Y16917D01*
X500062Y18737D01*
X498968Y20375D01*
X497575Y21768D01*
X495937Y22862D01*
X494117Y23616D01*
X492185Y24000D01*
D02*
G37*
G36*
X253485D02*
X251515D01*
X249583Y23616D01*
X247763Y22862D01*
X246125Y21768D01*
X244732Y20375D01*
X243638Y18737D01*
X242884Y16917D01*
X242500Y14985D01*
Y13015D01*
X242884Y11083D01*
X243638Y9263D01*
X244732Y7625D01*
X246125Y6233D01*
X247763Y5138D01*
X249583Y4384D01*
X251515Y4000D01*
X253485D01*
X255417Y4384D01*
X257237Y5138D01*
X258875Y6233D01*
X260267Y7625D01*
X261362Y9263D01*
X262116Y11083D01*
X262500Y13015D01*
Y14985D01*
X262116Y16917D01*
X261362Y18737D01*
X260267Y20375D01*
X258875Y21768D01*
X257237Y22862D01*
X255417Y23616D01*
X253485Y24000D01*
D02*
G37*
G36*
X182087D02*
X180117D01*
X178185Y23616D01*
X176366Y22862D01*
X174728Y21768D01*
X173335Y20375D01*
X172240Y18737D01*
X171487Y16917D01*
X171102Y14985D01*
Y13015D01*
X171487Y11083D01*
X172240Y9263D01*
X173335Y7625D01*
X174728Y6233D01*
X176366Y5138D01*
X178185Y4384D01*
X180117Y4000D01*
X182087D01*
X184019Y4384D01*
X185839Y5138D01*
X187477Y6233D01*
X188870Y7625D01*
X189964Y9263D01*
X190718Y11083D01*
X191102Y13015D01*
Y14985D01*
X190718Y16917D01*
X189964Y18737D01*
X188870Y20375D01*
X187477Y21768D01*
X185839Y22862D01*
X184019Y23616D01*
X182087Y24000D01*
D02*
G37*
%LPD*%
G36*
X494471Y127366D02*
Y122346D01*
X494009Y122154D01*
X490184Y125978D01*
X490453Y126980D01*
Y128020D01*
X490183Y129026D01*
X489663Y129927D01*
X488927Y130663D01*
X488026Y131183D01*
X487020Y131453D01*
X485980D01*
X484974Y131183D01*
X484073Y130663D01*
X483337Y129927D01*
X482817Y129026D01*
X482547Y128020D01*
Y126980D01*
X482816Y125978D01*
X457092Y100255D01*
X452071D01*
X451879Y100716D01*
X484978Y133816D01*
X485980Y133547D01*
X487020D01*
X488022Y133816D01*
X494471Y127366D01*
D02*
G37*
G36*
X261782Y31536D02*
X261591Y31074D01*
X252070D01*
X244346Y38798D01*
X244583Y39268D01*
X245450Y39500D01*
X246306Y39994D01*
X247006Y40694D01*
X247454Y41471D01*
X251848D01*
X261782Y31536D01*
D02*
G37*
G36*
X249282Y29536D02*
X249091Y29074D01*
X239570D01*
X229847Y38798D01*
X230083Y39268D01*
X230950Y39500D01*
X231806Y39994D01*
X232505Y40694D01*
X232954Y41471D01*
X237348D01*
X249282Y29536D01*
D02*
G37*
G36*
X306572Y14415D02*
X306381Y13953D01*
X301360D01*
X287759Y27553D01*
X287950Y28015D01*
X292971D01*
X306572Y14415D01*
D02*
G37*
D10*
X305000Y180884D02*
X355000Y130884D01*
X305000Y180884D02*
Y190000D01*
X374558Y130884D02*
X375000D01*
X315000Y190000D02*
X315442D01*
X374558Y130884D01*
X425000Y168000D02*
Y174000D01*
X421500Y177500D02*
X425000Y174000D01*
X382500Y177500D02*
X421500D01*
X375000Y185000D02*
X382500Y177500D01*
X375000Y185000D02*
Y190000D01*
X193500Y131000D02*
Y148500D01*
X85000Y119500D02*
X383616D01*
X71000Y133500D02*
X85000Y119500D01*
X215000Y43000D02*
X223481D01*
X238936Y27545D01*
X229500Y43000D02*
X237981D01*
X251436Y29545D02*
X293605D01*
X237981Y43000D02*
X251436Y29545D01*
X215000Y53000D02*
Y70116D01*
X428884Y94000D02*
X486500D01*
Y54000D02*
X496000Y63500D01*
X486500Y64000D02*
X494000Y71500D01*
X395000Y38500D02*
Y70116D01*
Y38500D02*
X423500Y10000D01*
X385000Y38500D02*
X413500Y10000D01*
X385000Y38500D02*
Y70116D01*
X375000Y38500D02*
Y70116D01*
Y38500D02*
X403500Y10000D01*
X365000Y38500D02*
Y70116D01*
Y38500D02*
X393500Y10000D01*
X405000Y70116D02*
X428884Y94000D01*
X486500Y137500D02*
X496000Y128000D01*
Y63500D02*
Y128000D01*
X494000Y71500D02*
Y120000D01*
X486500Y127500D02*
X494000Y120000D01*
X457725Y98725D02*
X486500Y127500D01*
X395000Y146000D02*
Y168000D01*
Y130884D02*
Y146000D01*
X385000Y130884D02*
Y146000D01*
X383616Y119500D02*
X395000Y130884D01*
X385000Y146000D02*
Y168000D01*
X193250Y131250D02*
X193500Y131000D01*
X450000Y101000D02*
X486500Y137500D01*
X375884Y101000D02*
X450000D01*
X345000Y70116D02*
X375884Y101000D01*
X383609Y98725D02*
X457725D01*
X355000Y70116D02*
X383609Y98725D01*
X103000Y121500D02*
X375616D01*
X91000Y133500D02*
X103000Y121500D01*
X344500Y131384D02*
X345000Y130884D01*
X285000Y70116D02*
X312323Y42793D01*
Y42793D02*
Y42793D01*
X340650Y42500D02*
X340943Y42207D01*
X312616Y42500D02*
X340650D01*
X312323Y42793D02*
X312616Y42500D01*
X340943Y42207D02*
X373150Y10000D01*
X265000Y70116D02*
X297116Y38000D01*
X255000Y70116D02*
X289116Y36000D01*
X275000Y70116D02*
X305116Y40000D01*
X333150D01*
X363150Y10000D01*
X317150Y36000D02*
X343150Y10000D01*
X289116Y36000D02*
X317150D01*
X297116Y38000D02*
X325150D01*
X353150Y10000D01*
X309150Y34000D02*
X333150Y10000D01*
X267500Y34000D02*
X309150D01*
X301605Y31545D02*
X323150Y10000D01*
X263936Y31545D02*
X301605D01*
X293605Y29545D02*
X313150Y10000D01*
X258500Y43000D02*
X267500Y34000D01*
X252481Y43000D02*
X263936Y31545D01*
X238936Y27545D02*
X285605D01*
X303150Y10000D01*
X375616Y121500D02*
X385000Y130884D01*
X244000Y43000D02*
X252481D01*
X257860Y53640D02*
X258500Y53000D01*
X245000Y70116D02*
X257860Y57256D01*
Y53640D02*
Y57256D01*
X235000Y62000D02*
Y70116D01*
Y62000D02*
X244000Y53000D01*
X225000Y57500D02*
Y70116D01*
Y57500D02*
X229500Y53000D01*
X131000Y133500D02*
Y148500D01*
X81000Y133500D02*
X91000D01*
D21*
X41000D02*
D03*
X51000D02*
D03*
X61000D02*
D03*
X71000D02*
D03*
X81000D02*
D03*
X91000D02*
D03*
X101000D02*
D03*
X111000D02*
D03*
X121000D02*
D03*
X131000D02*
D03*
Y33500D02*
D03*
X121000D02*
D03*
X51000D02*
D03*
D22*
X41000D02*
D03*
D24*
X345000Y190000D02*
D03*
X335000D02*
D03*
X325000D02*
D03*
X315000D02*
D03*
X305000D02*
D03*
X295000D02*
D03*
X285000D02*
D03*
X463500Y10000D02*
D03*
X453500D02*
D03*
X443500D02*
D03*
X433500D02*
D03*
X423500D02*
D03*
X413500D02*
D03*
X403500D02*
D03*
X486500Y44000D02*
D03*
Y54000D02*
D03*
Y64000D02*
D03*
Y74000D02*
D03*
Y84000D02*
D03*
X175642Y79795D02*
D03*
X193358D02*
D03*
Y54205D02*
D03*
X373150Y10000D02*
D03*
X363150D02*
D03*
X353150D02*
D03*
X343150D02*
D03*
X333150D02*
D03*
X323150D02*
D03*
X313150D02*
D03*
X486500Y127500D02*
D03*
Y137500D02*
D03*
Y147500D02*
D03*
Y157500D02*
D03*
Y167500D02*
D03*
X425000Y168000D02*
D03*
X415000D02*
D03*
X405000D02*
D03*
X395000D02*
D03*
X375000D02*
D03*
X385000D02*
D03*
X110000Y190000D02*
D03*
X120000D02*
D03*
X130000D02*
D03*
X395000D02*
D03*
X385000D02*
D03*
X375000D02*
D03*
D25*
X275000D02*
D03*
X393500Y10000D02*
D03*
X303150D02*
D03*
X365000Y168000D02*
D03*
X140000Y190000D02*
D03*
X365000D02*
D03*
D26*
X183500Y101000D02*
D03*
X193500D02*
D03*
Y131000D02*
D03*
X183500D02*
D03*
X258500Y53000D02*
D03*
Y43000D02*
D03*
X244000Y53000D02*
D03*
Y43000D02*
D03*
X229500Y53000D02*
D03*
Y43000D02*
D03*
X215000Y53000D02*
D03*
Y43000D02*
D03*
X395000Y146000D02*
D03*
X405000D02*
D03*
X385000D02*
D03*
X375000D02*
D03*
X111000Y153000D02*
D03*
X101000D02*
D03*
X131000Y158500D02*
D03*
Y148500D02*
D03*
X320500Y55500D02*
D03*
X310500D02*
D03*
X305000Y147000D02*
D03*
X315000D02*
D03*
D27*
X183500Y148500D02*
D03*
X193500D02*
D03*
D28*
X486500Y94000D02*
D03*
X175642Y54205D02*
D03*
X486500Y117500D02*
D03*
D29*
X215000Y70116D02*
D03*
D30*
X225000D02*
D03*
X235000D02*
D03*
X245000D02*
D03*
X255000D02*
D03*
X265000D02*
D03*
X275000D02*
D03*
X285000D02*
D03*
X295000D02*
D03*
X305000D02*
D03*
X315000D02*
D03*
X325000D02*
D03*
X335000D02*
D03*
X345000D02*
D03*
X355000D02*
D03*
X365000D02*
D03*
X375000D02*
D03*
X385000D02*
D03*
X395000D02*
D03*
X405000D02*
D03*
Y130884D02*
D03*
X395000D02*
D03*
X385000D02*
D03*
X375000D02*
D03*
X365000D02*
D03*
X355000D02*
D03*
X345000D02*
D03*
X335000D02*
D03*
X325000D02*
D03*
X315000D02*
D03*
X305000D02*
D03*
X295000D02*
D03*
X285000D02*
D03*
X275000D02*
D03*
X265000D02*
D03*
X255000D02*
D03*
X245000D02*
D03*
X235000D02*
D03*
X225000D02*
D03*
X215000D02*
D03*
D31*
X252500Y14000D02*
D03*
X181102D02*
D03*
Y186000D02*
D03*
X491200D02*
D03*
Y14000D02*
D03*
M02*
