G04*
G04 #@! TF.GenerationSoftware,Altium Limited,Altium Designer,21.6.1 (37)*
G04*
G04 Layer_Color=8388736*
%FSLAX25Y25*%
%MOIN*%
G70*
G04*
G04 #@! TF.SameCoordinates,52FEF336-61EC-4A20-BBB9-21C97B9F3EC8*
G04*
G04*
G04 #@! TF.FilePolarity,Negative*
G04*
G01*
G75*
%ADD15C,0.06312*%
%ADD16C,0.07099*%
%ADD17C,0.06706*%
%ADD18R,0.06706X0.06706*%
%ADD19C,0.05118*%
%ADD20R,0.05118X0.05118*%
%ADD21C,0.04934*%
%ADD22R,0.04934X0.04934*%
%ADD23R,0.06706X0.06706*%
%ADD24R,0.08674X0.08674*%
%ADD25C,0.08674*%
D15*
X83000Y120500D02*
D03*
Y130500D02*
D03*
X67500Y120500D02*
D03*
Y130500D02*
D03*
X30000Y99000D02*
D03*
Y89000D02*
D03*
D16*
X103000Y130500D02*
D03*
Y120500D02*
D03*
X30000Y131000D02*
D03*
Y121000D02*
D03*
D17*
X10000Y130000D02*
D03*
Y120000D02*
D03*
Y110000D02*
D03*
X140000Y130000D02*
D03*
Y120000D02*
D03*
Y110000D02*
D03*
Y72000D02*
D03*
X80000Y10000D02*
D03*
X70000D02*
D03*
X60000D02*
D03*
D18*
X10000Y100000D02*
D03*
X140000D02*
D03*
Y62000D02*
D03*
D19*
X120500Y61500D02*
D03*
Y31500D02*
D03*
X100500Y61500D02*
D03*
Y31500D02*
D03*
X80500Y61500D02*
D03*
Y31500D02*
D03*
X50500Y61500D02*
D03*
D20*
Y31500D02*
D03*
D21*
X104000Y89000D02*
D03*
X94000D02*
D03*
X72000D02*
D03*
X62000D02*
D03*
D22*
X84000D02*
D03*
X52000D02*
D03*
D23*
X90000Y10000D02*
D03*
D24*
X30000Y31409D02*
D03*
D25*
Y72591D02*
D03*
M02*
