G04*
G04 #@! TF.GenerationSoftware,Altium Limited,Altium Designer,21.6.1 (37)*
G04*
G04 Layer_Physical_Order=1*
G04 Layer_Color=255*
%FSLAX25Y25*%
%MOIN*%
G70*
G04*
G04 #@! TF.SameCoordinates,52FEF336-61EC-4A20-BBB9-21C97B9F3EC8*
G04*
G04*
G04 #@! TF.FilePolarity,Positive*
G04*
G01*
G75*
%ADD10C,0.01000*%
%ADD19C,0.05118*%
%ADD20R,0.05118X0.05118*%
%ADD26C,0.04000*%
%ADD27C,0.05512*%
%ADD28C,0.06299*%
%ADD29C,0.05906*%
%ADD30R,0.05906X0.05906*%
%ADD31C,0.04134*%
%ADD32R,0.04134X0.04134*%
%ADD33R,0.05906X0.05906*%
%ADD34R,0.07874X0.07874*%
%ADD35C,0.07874*%
G36*
X150000D02*
X0D01*
Y150000D01*
X150000D01*
Y0D01*
D02*
G37*
%LPC*%
G36*
X30546Y135150D02*
X30500D01*
Y131500D01*
X34150D01*
Y131546D01*
X33867Y132602D01*
X33321Y133548D01*
X32548Y134320D01*
X31602Y134867D01*
X30546Y135150D01*
D02*
G37*
G36*
X29500D02*
X29454D01*
X28398Y134867D01*
X27452Y134320D01*
X26680Y133548D01*
X26133Y132602D01*
X25850Y131546D01*
Y131500D01*
X29500D01*
Y135150D01*
D02*
G37*
G36*
X103546Y134650D02*
X103500D01*
Y131000D01*
X107150D01*
Y131046D01*
X106867Y132102D01*
X106321Y133048D01*
X105548Y133820D01*
X104602Y134367D01*
X103546Y134650D01*
D02*
G37*
G36*
X68000Y134254D02*
Y131000D01*
X71254D01*
X71000Y131950D01*
X70505Y132806D01*
X69806Y133505D01*
X68950Y134000D01*
X68000Y134254D01*
D02*
G37*
G36*
X67000D02*
X66050Y134000D01*
X65194Y133505D01*
X64495Y132806D01*
X64000Y131950D01*
X63746Y131000D01*
X67000D01*
Y134254D01*
D02*
G37*
G36*
X102500Y134650D02*
X102454D01*
X101398Y134367D01*
X100452Y133820D01*
X99679Y133048D01*
X99133Y132102D01*
X98850Y131046D01*
Y131000D01*
X102500D01*
Y134650D01*
D02*
G37*
G36*
X34150Y130500D02*
X30500D01*
Y126850D01*
X30546D01*
X31602Y127133D01*
X32548Y127680D01*
X33321Y128452D01*
X33867Y129398D01*
X34150Y130454D01*
Y130500D01*
D02*
G37*
G36*
X29500D02*
X25850D01*
Y130454D01*
X26133Y129398D01*
X26680Y128452D01*
X27452Y127680D01*
X28398Y127133D01*
X29454Y126850D01*
X29500D01*
Y130500D01*
D02*
G37*
G36*
X71254Y130000D02*
X68000D01*
Y126746D01*
X68950Y127000D01*
X69806Y127495D01*
X70505Y128194D01*
X71000Y129050D01*
X71254Y130000D01*
D02*
G37*
G36*
X67000D02*
X63746D01*
X64000Y129050D01*
X64495Y128194D01*
X65194Y127495D01*
X66050Y127000D01*
X67000Y126746D01*
Y130000D01*
D02*
G37*
G36*
X83495Y134256D02*
X82506D01*
X81550Y134000D01*
X80694Y133505D01*
X79994Y132806D01*
X79500Y131950D01*
X79244Y130994D01*
Y130006D01*
X79500Y129050D01*
X79994Y128194D01*
X80694Y127495D01*
X81550Y127000D01*
X82506Y126744D01*
X83495D01*
X84450Y127000D01*
X85306Y127495D01*
X86006Y128194D01*
X86500Y129050D01*
X86756Y130006D01*
Y130994D01*
X86500Y131950D01*
X86006Y132806D01*
X85306Y133505D01*
X84450Y134000D01*
X83495Y134256D01*
D02*
G37*
G36*
X107150Y130000D02*
X103500D01*
Y126350D01*
X103546D01*
X104602Y126633D01*
X105548Y127180D01*
X106321Y127952D01*
X106867Y128898D01*
X107150Y129954D01*
Y130000D01*
D02*
G37*
G36*
X102500D02*
X98850D01*
Y129954D01*
X99133Y128898D01*
X99679Y127952D01*
X100452Y127180D01*
X101398Y126633D01*
X102454Y126350D01*
X102500D01*
Y130000D01*
D02*
G37*
G36*
X140520Y133953D02*
X139480D01*
X138474Y133683D01*
X137573Y133163D01*
X136837Y132427D01*
X136317Y131526D01*
X136047Y130520D01*
Y129480D01*
X136317Y128474D01*
X136837Y127573D01*
X137573Y126837D01*
X138474Y126317D01*
X139480Y126047D01*
X140520D01*
X141526Y126317D01*
X142427Y126837D01*
X143163Y127573D01*
X143683Y128474D01*
X143953Y129480D01*
Y130520D01*
X143683Y131526D01*
X143163Y132427D01*
X142427Y133163D01*
X141526Y133683D01*
X140520Y133953D01*
D02*
G37*
G36*
X10520D02*
X9480D01*
X8474Y133683D01*
X7573Y133163D01*
X6837Y132427D01*
X6317Y131526D01*
X6047Y130520D01*
Y129480D01*
X6317Y128474D01*
X6837Y127573D01*
X7573Y126837D01*
X8474Y126317D01*
X9480Y126047D01*
X10520D01*
X11526Y126317D01*
X12427Y126837D01*
X13163Y127573D01*
X13683Y128474D01*
X13953Y129480D01*
Y130520D01*
X13683Y131526D01*
X13163Y132427D01*
X12427Y133163D01*
X11526Y133683D01*
X10520Y133953D01*
D02*
G37*
G36*
X103546Y124650D02*
X102454D01*
X101398Y124367D01*
X100452Y123820D01*
X99679Y123048D01*
X99133Y122102D01*
X99114Y122029D01*
X86454D01*
X86006Y122806D01*
X85306Y123505D01*
X84450Y124000D01*
X83495Y124256D01*
X82506D01*
X81550Y124000D01*
X80694Y123505D01*
X79994Y122806D01*
X79500Y121950D01*
X79244Y120994D01*
Y120006D01*
X79500Y119050D01*
X79994Y118194D01*
X80694Y117494D01*
X81550Y117000D01*
X82506Y116744D01*
X83495D01*
X84450Y117000D01*
X85306Y117494D01*
X86006Y118194D01*
X86454Y118971D01*
X99114D01*
X99133Y118898D01*
X99679Y117952D01*
X100452Y117180D01*
X101398Y116633D01*
X102454Y116350D01*
X103546D01*
X104602Y116633D01*
X105548Y117180D01*
X106321Y117952D01*
X106867Y118898D01*
X107150Y119954D01*
Y121046D01*
X106867Y122102D01*
X106321Y123048D01*
X105548Y123820D01*
X104602Y124367D01*
X103546Y124650D01*
D02*
G37*
G36*
X140520Y123953D02*
X139480D01*
X138474Y123683D01*
X137573Y123163D01*
X136837Y122427D01*
X136319Y121529D01*
X125000D01*
X124415Y121413D01*
X123919Y121081D01*
X94798Y91961D01*
X94404Y92067D01*
X93596D01*
X92816Y91858D01*
X92117Y91454D01*
X91546Y90883D01*
X91142Y90184D01*
X90933Y89404D01*
Y88596D01*
X91142Y87816D01*
X91546Y87117D01*
X92117Y86546D01*
X92816Y86142D01*
X93596Y85933D01*
X94404D01*
X94798Y86039D01*
X104419Y76419D01*
X104915Y76087D01*
X105500Y75971D01*
X109822D01*
X120272Y65521D01*
X120080Y65059D01*
X120031D01*
X119126Y64816D01*
X118315Y64348D01*
X117652Y63685D01*
X117183Y62874D01*
X116941Y61969D01*
Y61031D01*
X117183Y60126D01*
X117474Y59623D01*
Y41753D01*
X89674Y13953D01*
X86047D01*
Y13026D01*
X82564D01*
X82427Y13163D01*
X81526Y13683D01*
X80520Y13953D01*
X79480D01*
X78474Y13683D01*
X77573Y13163D01*
X76837Y12427D01*
X76317Y11526D01*
X76047Y10520D01*
Y9480D01*
X76317Y8474D01*
X76837Y7573D01*
X77573Y6837D01*
X78474Y6317D01*
X79480Y6047D01*
X80520D01*
X81526Y6317D01*
X82427Y6837D01*
X82564Y6974D01*
X86047D01*
Y6047D01*
X93953D01*
Y9674D01*
X116488Y32208D01*
X116907Y31986D01*
X116941Y31955D01*
Y31031D01*
X117183Y30126D01*
X117652Y29315D01*
X118315Y28652D01*
X119126Y28183D01*
X120031Y27941D01*
X120969D01*
X121874Y28183D01*
X122685Y28652D01*
X123348Y29315D01*
X123817Y30126D01*
X124059Y31031D01*
Y31969D01*
X123817Y32874D01*
X123348Y33685D01*
X122685Y34348D01*
X121874Y34817D01*
X120969Y35059D01*
X120045D01*
X120014Y35092D01*
X119792Y35513D01*
X122640Y38360D01*
X122640Y38360D01*
X123120Y38987D01*
X123423Y39717D01*
X123526Y40500D01*
Y59623D01*
X123817Y60126D01*
X124059Y61031D01*
Y61080D01*
X124521Y61272D01*
X124874Y60919D01*
X125370Y60587D01*
X125956Y60471D01*
X136047D01*
Y58047D01*
X143953D01*
Y65953D01*
X136047D01*
Y63529D01*
X126589D01*
X111537Y78581D01*
X111041Y78913D01*
X110456Y79029D01*
X106133D01*
X96961Y88202D01*
X97067Y88596D01*
Y89404D01*
X96961Y89798D01*
X125634Y118471D01*
X136319D01*
X136837Y117573D01*
X137573Y116837D01*
X138474Y116317D01*
X139480Y116047D01*
X140520D01*
X141526Y116317D01*
X142427Y116837D01*
X143163Y117573D01*
X143683Y118474D01*
X143953Y119480D01*
Y120520D01*
X143683Y121526D01*
X143163Y122427D01*
X142427Y123163D01*
X141526Y123683D01*
X140520Y123953D01*
D02*
G37*
G36*
X10520D02*
X9480D01*
X8474Y123683D01*
X7573Y123163D01*
X6837Y122427D01*
X6317Y121526D01*
X6047Y120520D01*
Y119480D01*
X6317Y118474D01*
X6837Y117573D01*
X7573Y116837D01*
X8474Y116317D01*
X9480Y116047D01*
X10520D01*
X11526Y116317D01*
X12427Y116837D01*
X13163Y117573D01*
X13683Y118474D01*
X13953Y119480D01*
Y120520D01*
X13683Y121526D01*
X13163Y122427D01*
X12427Y123163D01*
X11526Y123683D01*
X10520Y123953D01*
D02*
G37*
G36*
X140520Y113953D02*
X140500D01*
Y110500D01*
X143953D01*
Y110520D01*
X143683Y111526D01*
X143163Y112427D01*
X142427Y113163D01*
X141526Y113683D01*
X140520Y113953D01*
D02*
G37*
G36*
X139500D02*
X139480D01*
X138474Y113683D01*
X137573Y113163D01*
X136837Y112427D01*
X136317Y111526D01*
X136047Y110520D01*
Y110500D01*
X139500D01*
Y113953D01*
D02*
G37*
G36*
X143953Y109500D02*
X140500D01*
Y106047D01*
X140520D01*
X141526Y106317D01*
X142427Y106837D01*
X143163Y107573D01*
X143683Y108474D01*
X143953Y109480D01*
Y109500D01*
D02*
G37*
G36*
X139500D02*
X136047D01*
Y109480D01*
X136317Y108474D01*
X136837Y107573D01*
X137573Y106837D01*
X138474Y106317D01*
X139480Y106047D01*
X139500D01*
Y109500D01*
D02*
G37*
G36*
X10520Y113953D02*
X9480D01*
X8474Y113683D01*
X7573Y113163D01*
X6837Y112427D01*
X6317Y111526D01*
X6047Y110520D01*
Y109480D01*
X6317Y108474D01*
X6837Y107573D01*
X7573Y106837D01*
X8474Y106317D01*
X9480Y106047D01*
X10520D01*
X11526Y106317D01*
X12427Y106837D01*
X13163Y107573D01*
X13683Y108474D01*
X13953Y109480D01*
Y110520D01*
X13683Y111526D01*
X13163Y112427D01*
X12427Y113163D01*
X11526Y113683D01*
X10520Y113953D01*
D02*
G37*
G36*
X143953Y103953D02*
X136047D01*
Y96047D01*
X143953D01*
Y103953D01*
D02*
G37*
G36*
X13953D02*
X6047D01*
Y96047D01*
X13953D01*
Y103953D01*
D02*
G37*
G36*
X30546Y125150D02*
X29454D01*
X28398Y124867D01*
X27452Y124320D01*
X26680Y123548D01*
X26133Y122602D01*
X25850Y121546D01*
Y120454D01*
X26133Y119398D01*
X26680Y118452D01*
X27452Y117680D01*
X28398Y117133D01*
X28471Y117114D01*
Y102454D01*
X27694Y102006D01*
X26994Y101306D01*
X26500Y100450D01*
X26244Y99494D01*
Y98506D01*
X26500Y97550D01*
X26994Y96694D01*
X27694Y95995D01*
X28550Y95500D01*
X29506Y95244D01*
X30494D01*
X31450Y95500D01*
X32306Y95995D01*
X33005Y96694D01*
X33500Y97550D01*
X33756Y98506D01*
Y99494D01*
X33500Y100450D01*
X33005Y101306D01*
X32306Y102006D01*
X31529Y102454D01*
Y117114D01*
X31602Y117133D01*
X32548Y117680D01*
X33321Y118452D01*
X33867Y119398D01*
X34150Y120454D01*
Y121546D01*
X33867Y122602D01*
X33321Y123548D01*
X32548Y124320D01*
X31602Y124867D01*
X30546Y125150D01*
D02*
G37*
G36*
X67994Y124256D02*
X67005D01*
X66050Y124000D01*
X65194Y123505D01*
X64495Y122806D01*
X64000Y121950D01*
X63744Y120994D01*
Y120006D01*
X64000Y119050D01*
X64495Y118194D01*
X65194Y117494D01*
X65971Y117046D01*
Y95178D01*
X62763Y91971D01*
X62404Y92067D01*
X61596D01*
X60816Y91858D01*
X60117Y91454D01*
X59546Y90883D01*
X59142Y90184D01*
X58933Y89404D01*
Y88596D01*
X59142Y87816D01*
X59546Y87117D01*
X60117Y86546D01*
X60816Y86142D01*
X61596Y85933D01*
X62404D01*
X62798Y86039D01*
X64486Y84352D01*
X64982Y84020D01*
X65567Y83904D01*
X74433D01*
X75018Y84020D01*
X75515Y84352D01*
X78633Y87471D01*
X80933D01*
Y85933D01*
X87067D01*
Y92067D01*
X80933D01*
Y90529D01*
X78000D01*
X77415Y90413D01*
X76919Y90081D01*
X75567Y88730D01*
X75067Y88937D01*
Y89404D01*
X74858Y90184D01*
X74454Y90883D01*
X73883Y91454D01*
X73184Y91858D01*
X72404Y92067D01*
X71596D01*
X70816Y91858D01*
X70117Y91454D01*
X69546Y90883D01*
X69142Y90184D01*
X68933Y89404D01*
Y88596D01*
X69142Y87816D01*
X69346Y87463D01*
X69058Y86962D01*
X66200D01*
X64961Y88202D01*
X65067Y88596D01*
Y89404D01*
X64952Y89833D01*
X68581Y93463D01*
X68913Y93959D01*
X69029Y94544D01*
Y117046D01*
X69806Y117494D01*
X70505Y118194D01*
X71000Y119050D01*
X71256Y120006D01*
Y120994D01*
X71000Y121950D01*
X70505Y122806D01*
X69806Y123505D01*
X68950Y124000D01*
X67994Y124256D01*
D02*
G37*
G36*
X104404Y92067D02*
X103596D01*
X102816Y91858D01*
X102117Y91454D01*
X101546Y90883D01*
X101142Y90184D01*
X100933Y89404D01*
Y88596D01*
X101142Y87816D01*
X101546Y87117D01*
X102117Y86546D01*
X102816Y86142D01*
X103596Y85933D01*
X104404D01*
X105184Y86142D01*
X105883Y86546D01*
X106454Y87117D01*
X106858Y87816D01*
X107067Y88596D01*
Y89404D01*
X106858Y90184D01*
X106454Y90883D01*
X105883Y91454D01*
X105184Y91858D01*
X104404Y92067D01*
D02*
G37*
G36*
X30494Y92756D02*
X29506D01*
X28550Y92500D01*
X27694Y92005D01*
X26994Y91306D01*
X26500Y90450D01*
X26244Y89495D01*
Y88506D01*
X26500Y87550D01*
X26994Y86694D01*
X27694Y85994D01*
X28471Y85546D01*
Y77292D01*
X28094Y77191D01*
X26969Y76541D01*
X26049Y75622D01*
X25399Y74496D01*
X25063Y73241D01*
Y71941D01*
X25399Y70685D01*
X26049Y69559D01*
X26969Y68640D01*
X28094Y67990D01*
X29350Y67654D01*
X30650D01*
X31906Y67990D01*
X33031Y68640D01*
X33951Y69559D01*
X34601Y70685D01*
X34701Y71061D01*
X38776D01*
X47137Y62700D01*
X46941Y61969D01*
Y61031D01*
X47183Y60126D01*
X47652Y59315D01*
X48315Y58652D01*
X49126Y58183D01*
X50031Y57941D01*
X50969D01*
X51874Y58183D01*
X52685Y58652D01*
X53348Y59315D01*
X53816Y60126D01*
X54059Y61031D01*
Y61969D01*
X53816Y62874D01*
X53348Y63685D01*
X52685Y64348D01*
X51874Y64816D01*
X50969Y65059D01*
X50031D01*
X49300Y64863D01*
X40491Y73672D01*
X39995Y74003D01*
X39409Y74120D01*
X34701D01*
X34601Y74496D01*
X33951Y75622D01*
X33031Y76541D01*
X31906Y77191D01*
X31529Y77292D01*
Y85546D01*
X32306Y85994D01*
X33005Y86694D01*
X33454Y87471D01*
X48933D01*
Y85933D01*
X55067D01*
Y92067D01*
X48933D01*
Y90529D01*
X33454D01*
X33005Y91306D01*
X32306Y92005D01*
X31450Y92500D01*
X30494Y92756D01*
D02*
G37*
G36*
X140520Y75953D02*
X139480D01*
X138474Y75683D01*
X137573Y75163D01*
X136837Y74427D01*
X136317Y73526D01*
X136047Y72520D01*
Y71480D01*
X136317Y70474D01*
X136837Y69573D01*
X137573Y68837D01*
X138474Y68317D01*
X139480Y68047D01*
X140520D01*
X141526Y68317D01*
X142427Y68837D01*
X143163Y69573D01*
X143683Y70474D01*
X143953Y71480D01*
Y72520D01*
X143683Y73526D01*
X143163Y74427D01*
X142427Y75163D01*
X141526Y75683D01*
X140520Y75953D01*
D02*
G37*
G36*
X100969Y65059D02*
X100031D01*
X99126Y64816D01*
X98315Y64348D01*
X97652Y63685D01*
X97184Y62874D01*
X96941Y61969D01*
Y61031D01*
X97184Y60126D01*
X97652Y59315D01*
X98315Y58652D01*
X99126Y58183D01*
X100031Y57941D01*
X100969D01*
X101874Y58183D01*
X102685Y58652D01*
X103348Y59315D01*
X103816Y60126D01*
X104059Y61031D01*
Y61969D01*
X103816Y62874D01*
X103348Y63685D01*
X102685Y64348D01*
X101874Y64816D01*
X100969Y65059D01*
D02*
G37*
G36*
X80969D02*
X80031D01*
X79126Y64816D01*
X78315Y64348D01*
X77652Y63685D01*
X77184Y62874D01*
X76941Y61969D01*
Y61031D01*
X77184Y60126D01*
X77652Y59315D01*
X78315Y58652D01*
X79126Y58183D01*
X80031Y57941D01*
X80969D01*
X81874Y58183D01*
X82685Y58652D01*
X83348Y59315D01*
X83816Y60126D01*
X84059Y61031D01*
Y61969D01*
X83816Y62874D01*
X83348Y63685D01*
X82685Y64348D01*
X81874Y64816D01*
X80969Y65059D01*
D02*
G37*
G36*
X54059Y35059D02*
X51000D01*
Y32000D01*
X54059D01*
Y35059D01*
D02*
G37*
G36*
X50000D02*
X46941D01*
Y32000D01*
X50000D01*
Y35059D01*
D02*
G37*
G36*
X34937Y36347D02*
X30500D01*
Y31909D01*
X34937D01*
Y36347D01*
D02*
G37*
G36*
X29500D02*
X25063D01*
Y31909D01*
X29500D01*
Y36347D01*
D02*
G37*
G36*
X100969Y35059D02*
X100031D01*
X99126Y34817D01*
X98315Y34348D01*
X97652Y33685D01*
X97184Y32874D01*
X96941Y31969D01*
Y31031D01*
X97184Y30126D01*
X97652Y29315D01*
X98315Y28652D01*
X99126Y28183D01*
X100031Y27941D01*
X100969D01*
X101874Y28183D01*
X102685Y28652D01*
X103348Y29315D01*
X103816Y30126D01*
X104059Y31031D01*
Y31969D01*
X103816Y32874D01*
X103348Y33685D01*
X102685Y34348D01*
X101874Y34817D01*
X100969Y35059D01*
D02*
G37*
G36*
X80969D02*
X80031D01*
X79126Y34817D01*
X78315Y34348D01*
X77652Y33685D01*
X77184Y32874D01*
X76941Y31969D01*
Y31031D01*
X77184Y30126D01*
X77652Y29315D01*
X78315Y28652D01*
X79126Y28183D01*
X80031Y27941D01*
X80969D01*
X81874Y28183D01*
X82685Y28652D01*
X83348Y29315D01*
X83816Y30126D01*
X84059Y31031D01*
Y31969D01*
X83816Y32874D01*
X83348Y33685D01*
X82685Y34348D01*
X81874Y34817D01*
X80969Y35059D01*
D02*
G37*
G36*
X54059Y31000D02*
X51000D01*
Y27941D01*
X54059D01*
Y31000D01*
D02*
G37*
G36*
X50000D02*
X46941D01*
Y27941D01*
X50000D01*
Y31000D01*
D02*
G37*
G36*
X34937Y30909D02*
X30500D01*
Y26472D01*
X34937D01*
Y30909D01*
D02*
G37*
G36*
X29500D02*
X25063D01*
Y26472D01*
X29500D01*
Y30909D01*
D02*
G37*
G36*
X70520Y13953D02*
X69480D01*
X68474Y13683D01*
X67573Y13163D01*
X66837Y12427D01*
X66317Y11526D01*
X66047Y10520D01*
Y9480D01*
X66317Y8474D01*
X66837Y7573D01*
X67573Y6837D01*
X68474Y6317D01*
X69480Y6047D01*
X70520D01*
X71526Y6317D01*
X72427Y6837D01*
X73163Y7573D01*
X73683Y8474D01*
X73953Y9480D01*
Y10520D01*
X73683Y11526D01*
X73163Y12427D01*
X72427Y13163D01*
X71526Y13683D01*
X70520Y13953D01*
D02*
G37*
G36*
X60520D02*
X59480D01*
X58474Y13683D01*
X57573Y13163D01*
X56837Y12427D01*
X56317Y11526D01*
X56047Y10520D01*
Y9480D01*
X56317Y8474D01*
X56837Y7573D01*
X57573Y6837D01*
X58474Y6317D01*
X59480Y6047D01*
X60520D01*
X61526Y6317D01*
X62427Y6837D01*
X63163Y7573D01*
X63683Y8474D01*
X63953Y9480D01*
Y10520D01*
X63683Y11526D01*
X63163Y12427D01*
X62427Y13163D01*
X61526Y13683D01*
X60520Y13953D01*
D02*
G37*
%LPD*%
D10*
X67500Y94544D02*
Y120500D01*
X30000Y72591D02*
Y89000D01*
X94000D02*
X105500Y77500D01*
X110456D01*
X125956Y62000D01*
X65567Y85433D02*
X74433D01*
X62000Y89000D02*
X65567Y85433D01*
X74433D02*
X78000Y89000D01*
X84000D01*
X94000D02*
X125000Y120000D01*
X140000D01*
X125956Y62000D02*
X140000D01*
X30000Y89000D02*
X52000D01*
X39409Y72591D02*
X50500Y61500D01*
X30000Y72591D02*
X39409D01*
X62000Y89044D02*
X67500Y94544D01*
X62000Y89000D02*
Y89044D01*
X30000Y99000D02*
Y121000D01*
X83000Y120500D02*
X103000D01*
D19*
X120500Y61500D02*
D03*
Y31500D02*
D03*
X100500Y61500D02*
D03*
Y31500D02*
D03*
X80500Y61500D02*
D03*
Y31500D02*
D03*
X50500Y61500D02*
D03*
D20*
Y31500D02*
D03*
D26*
X120500Y40500D02*
Y61500D01*
X80000Y10000D02*
X90000D01*
X120500Y40500D01*
D27*
X83000Y120500D02*
D03*
Y130500D02*
D03*
X67500Y120500D02*
D03*
Y130500D02*
D03*
X30000Y99000D02*
D03*
Y89000D02*
D03*
D28*
X103000Y130500D02*
D03*
Y120500D02*
D03*
X30000Y131000D02*
D03*
Y121000D02*
D03*
D29*
X10000Y130000D02*
D03*
Y120000D02*
D03*
Y110000D02*
D03*
X140000Y130000D02*
D03*
Y120000D02*
D03*
Y110000D02*
D03*
Y72000D02*
D03*
X80000Y10000D02*
D03*
X70000D02*
D03*
X60000D02*
D03*
D30*
X10000Y100000D02*
D03*
X140000D02*
D03*
Y62000D02*
D03*
D31*
X104000Y89000D02*
D03*
X94000D02*
D03*
X72000D02*
D03*
X62000D02*
D03*
D32*
X84000D02*
D03*
X52000D02*
D03*
D33*
X90000Y10000D02*
D03*
D34*
X30000Y31409D02*
D03*
D35*
Y72591D02*
D03*
M02*
