G04*
G04 #@! TF.GenerationSoftware,Altium Limited,Altium Designer,21.6.1 (37)*
G04*
G04 Layer_Color=8388736*
%FSLAX25Y25*%
%MOIN*%
G70*
G04*
G04 #@! TF.SameCoordinates,52FEF336-61EC-4A20-BBB9-21C97B9F3EC8*
G04*
G04*
G04 #@! TF.FilePolarity,Positive*
G04*
G01*
G75*
%ADD13C,0.00787*%
G36*
X86479Y47996D02*
X87582Y46500D01*
X87142D01*
X86246Y47770D01*
X85835Y47374D01*
Y46500D01*
X85500D01*
Y49019D01*
X85835D01*
Y47767D01*
X87080Y49019D01*
X87535D01*
X86479Y47996D01*
D02*
G37*
G36*
X88900Y46500D02*
X88590D01*
Y48469D01*
X88587Y48466D01*
X88569Y48451D01*
X88547Y48429D01*
X88510Y48404D01*
X88470Y48371D01*
X88419Y48335D01*
X88361Y48294D01*
X88296Y48254D01*
X88292D01*
X88288Y48251D01*
X88266Y48236D01*
X88230Y48218D01*
X88186Y48196D01*
X88135Y48171D01*
X88081Y48145D01*
X88026Y48120D01*
X87972Y48098D01*
Y48396D01*
X87975D01*
X87982Y48404D01*
X87997Y48407D01*
X88015Y48418D01*
X88037Y48429D01*
X88063Y48444D01*
X88124Y48480D01*
X88197Y48520D01*
X88270Y48571D01*
X88346Y48629D01*
X88423Y48691D01*
X88427Y48695D01*
X88430Y48698D01*
X88441Y48709D01*
X88456Y48720D01*
X88488Y48757D01*
X88532Y48800D01*
X88576Y48851D01*
X88623Y48910D01*
X88663Y48968D01*
X88700Y49030D01*
X88900D01*
Y46500D01*
D02*
G37*
D13*
X45244Y26323D02*
Y66677D01*
Y26323D02*
X125756D01*
Y66677D01*
X45244D02*
X125756D01*
M02*
