G04*
G04 #@! TF.GenerationSoftware,Altium Limited,Altium Designer,21.6.1 (37)*
G04*
G04 Layer_Color=255*
%FSLAX25Y25*%
%MOIN*%
G70*
G04*
G04 #@! TF.SameCoordinates,52FEF336-61EC-4A20-BBB9-21C97B9F3EC8*
G04*
G04*
G04 #@! TF.FilePolarity,Positive*
G04*
G01*
G75*
%ADD19C,0.05118*%
%ADD20R,0.05118X0.05118*%
%ADD27C,0.05512*%
%ADD28C,0.06299*%
%ADD29C,0.05906*%
%ADD30R,0.05906X0.05906*%
%ADD31C,0.04134*%
%ADD32R,0.04134X0.04134*%
%ADD33R,0.05906X0.05906*%
%ADD34R,0.07874X0.07874*%
%ADD35C,0.07874*%
D19*
X120500Y61500D02*
D03*
Y31500D02*
D03*
X100500Y61500D02*
D03*
Y31500D02*
D03*
X80500Y61500D02*
D03*
Y31500D02*
D03*
X50500Y61500D02*
D03*
D20*
Y31500D02*
D03*
D27*
X83000Y120500D02*
D03*
Y130500D02*
D03*
X67500Y120500D02*
D03*
Y130500D02*
D03*
X30000Y99000D02*
D03*
Y89000D02*
D03*
D28*
X103000Y130500D02*
D03*
Y120500D02*
D03*
X30000Y131000D02*
D03*
Y121000D02*
D03*
D29*
X10000Y130000D02*
D03*
Y120000D02*
D03*
Y110000D02*
D03*
X140000Y130000D02*
D03*
Y120000D02*
D03*
Y110000D02*
D03*
Y72000D02*
D03*
X80000Y10000D02*
D03*
X70000D02*
D03*
X60000D02*
D03*
D30*
X10000Y100000D02*
D03*
X140000D02*
D03*
Y62000D02*
D03*
D31*
X104000Y89000D02*
D03*
X94000D02*
D03*
X72000D02*
D03*
X62000D02*
D03*
D32*
X84000D02*
D03*
X52000D02*
D03*
D33*
X90000Y10000D02*
D03*
D34*
X30000Y31409D02*
D03*
D35*
Y72591D02*
D03*
M02*
