M48
;Layer_Color=9474304
;FILE_FORMAT=2:5
INCH,LZ
;TYPE=PLATED
T1F00S00C0.02953
T2F00S00C0.03150
T3F00S00C0.03346
T4F00S00C0.03543
T5F00S00C0.03898
T6F00S00C0.13800
%
T01
X0131Y00335
Y01335
X0121
X0111
X0101
X0091
X0081
X0071
X0061
X0051
X0041
Y00335
X0051
X0121
T02
X01835Y01485
X01935
T03
X0285Y0070116
X0295
X0305
X0315
X0325
X0335
X0345
X0355
X0365
X0375
X0385
X0395
X0405
Y0130884
X0395
X0385
X0375
X0365
X0355
X0345
X0335
X0325
X0315
X0305
X0295
X0285
X0305Y0147
X0315
X0375Y0146
X0385
X0395
X0405
X03205Y00555
X03105
X0275Y0070116
X0265
X0255
X0245
X0235
X0225
X0215
Y0053
Y0043
X02295
Y0053
X0244
Y0043
X02585
Y0053
X0255Y0130884
X0265
X0275
X0245
X0235
X0225
X0215
X01935Y0131
X01835
Y0101
X01935
X0131Y01485
Y01585
X0111Y0153
X0101
T04
X04435Y001
X04535
X04635
X04865Y0044
Y0054
Y0064
Y0074
Y0084
Y0094
Y01175
Y01275
Y01375
Y01475
Y01575
X04335Y001
X04235
X04135
X04035
X03935
X037315
X036315
X035315
X034315
X033315
X032315
X031315
X030315
X012Y019
X011
X013
X014
X0275
X0285
X0295
X0305
X0315
X0325
X0335
X0345
X0365
X0375
X0385
X0395
Y0168
X0405
X0415
X0425
X0385
X0375
X0365
X04865Y01675
T05
X0175642Y0054205
X0193358
Y0079795
X0175642
T06
X04912Y0014
X02525
X0181102
Y0186
X04912
M30
