G04*
G04 #@! TF.GenerationSoftware,Altium Limited,Altium Designer,21.6.1 (37)*
G04*
G04 Layer_Physical_Order=2*
G04 Layer_Color=16711680*
%FSLAX25Y25*%
%MOIN*%
G70*
G04*
G04 #@! TF.SameCoordinates,52FEF336-61EC-4A20-BBB9-21C97B9F3EC8*
G04*
G04*
G04 #@! TF.FilePolarity,Positive*
G04*
G01*
G75*
%ADD10C,0.01000*%
%ADD19C,0.05118*%
%ADD20R,0.05118X0.05118*%
%ADD26C,0.04000*%
%ADD27C,0.05512*%
%ADD28C,0.06299*%
%ADD29C,0.05906*%
%ADD30R,0.05906X0.05906*%
%ADD31C,0.04134*%
%ADD32R,0.04134X0.04134*%
%ADD33R,0.05906X0.05906*%
%ADD34R,0.07874X0.07874*%
%ADD35C,0.07874*%
G36*
X150000D02*
X0D01*
Y150000D01*
X150000D01*
Y0D01*
D02*
G37*
%LPC*%
G36*
X83500Y134254D02*
Y131000D01*
X86754D01*
X86500Y131950D01*
X86006Y132806D01*
X85306Y133505D01*
X84450Y134000D01*
X83500Y134254D01*
D02*
G37*
G36*
X82500D02*
X81550Y134000D01*
X80694Y133505D01*
X79994Y132806D01*
X79500Y131950D01*
X79246Y131000D01*
X82500D01*
Y134254D01*
D02*
G37*
G36*
X140520Y133953D02*
X140500D01*
Y130500D01*
X143953D01*
Y130520D01*
X143683Y131526D01*
X143163Y132427D01*
X142427Y133163D01*
X141526Y133683D01*
X140520Y133953D01*
D02*
G37*
G36*
X10520D02*
X10500D01*
Y130500D01*
X13953D01*
Y130520D01*
X13683Y131526D01*
X13163Y132427D01*
X12427Y133163D01*
X11526Y133683D01*
X10520Y133953D01*
D02*
G37*
G36*
X139500D02*
X139480D01*
X138474Y133683D01*
X137573Y133163D01*
X136837Y132427D01*
X136317Y131526D01*
X136047Y130520D01*
Y130500D01*
X139500D01*
Y133953D01*
D02*
G37*
G36*
X9500D02*
X9480D01*
X8474Y133683D01*
X7573Y133163D01*
X6837Y132427D01*
X6317Y131526D01*
X6047Y130520D01*
Y130500D01*
X9500D01*
Y133953D01*
D02*
G37*
G36*
X30546Y135150D02*
X29454D01*
X28398Y134867D01*
X27452Y134320D01*
X26680Y133548D01*
X26133Y132602D01*
X25850Y131546D01*
Y130454D01*
X26133Y129398D01*
X26680Y128452D01*
X27452Y127680D01*
X28398Y127133D01*
X29454Y126850D01*
X30546D01*
X31602Y127133D01*
X32548Y127680D01*
X33321Y128452D01*
X33867Y129398D01*
X34150Y130454D01*
Y131546D01*
X33867Y132602D01*
X33321Y133548D01*
X32548Y134320D01*
X31602Y134867D01*
X30546Y135150D01*
D02*
G37*
G36*
X86754Y130000D02*
X83500D01*
Y126746D01*
X84450Y127000D01*
X85306Y127495D01*
X86006Y128194D01*
X86500Y129050D01*
X86754Y130000D01*
D02*
G37*
G36*
X82500D02*
X79246D01*
X79500Y129050D01*
X79994Y128194D01*
X80694Y127495D01*
X81550Y127000D01*
X82500Y126746D01*
Y130000D01*
D02*
G37*
G36*
X67994Y134256D02*
X67005D01*
X66050Y134000D01*
X65194Y133505D01*
X64495Y132806D01*
X64000Y131950D01*
X63744Y130994D01*
Y130006D01*
X64000Y129050D01*
X64495Y128194D01*
X65194Y127495D01*
X66050Y127000D01*
X67005Y126744D01*
X67994D01*
X68950Y127000D01*
X69806Y127495D01*
X70505Y128194D01*
X71000Y129050D01*
X71256Y130006D01*
Y130994D01*
X71000Y131950D01*
X70505Y132806D01*
X69806Y133505D01*
X68950Y134000D01*
X67994Y134256D01*
D02*
G37*
G36*
X103546Y134650D02*
X102454D01*
X101398Y134367D01*
X100452Y133820D01*
X99679Y133048D01*
X99133Y132102D01*
X98850Y131046D01*
Y129954D01*
X99133Y128898D01*
X99679Y127952D01*
X100452Y127180D01*
X101398Y126633D01*
X102454Y126350D01*
X103546D01*
X104602Y126633D01*
X105548Y127180D01*
X106321Y127952D01*
X106867Y128898D01*
X107150Y129954D01*
Y131046D01*
X106867Y132102D01*
X106321Y133048D01*
X105548Y133820D01*
X104602Y134367D01*
X103546Y134650D01*
D02*
G37*
G36*
X143953Y129500D02*
X140500D01*
Y126047D01*
X140520D01*
X141526Y126317D01*
X142427Y126837D01*
X143163Y127573D01*
X143683Y128474D01*
X143953Y129480D01*
Y129500D01*
D02*
G37*
G36*
X139500D02*
X136047D01*
Y129480D01*
X136317Y128474D01*
X136837Y127573D01*
X137573Y126837D01*
X138474Y126317D01*
X139480Y126047D01*
X139500D01*
Y129500D01*
D02*
G37*
G36*
X13953D02*
X10500D01*
Y126047D01*
X10520D01*
X11526Y126317D01*
X12427Y126837D01*
X13163Y127573D01*
X13683Y128474D01*
X13953Y129480D01*
Y129500D01*
D02*
G37*
G36*
X9500D02*
X6047D01*
Y129480D01*
X6317Y128474D01*
X6837Y127573D01*
X7573Y126837D01*
X8474Y126317D01*
X9480Y126047D01*
X9500D01*
Y129500D01*
D02*
G37*
G36*
X10520Y123953D02*
X10500D01*
Y120500D01*
X13953D01*
Y120520D01*
X13683Y121526D01*
X13163Y122427D01*
X12427Y123163D01*
X11526Y123683D01*
X10520Y123953D01*
D02*
G37*
G36*
X9500D02*
X9480D01*
X8474Y123683D01*
X7573Y123163D01*
X6837Y122427D01*
X6317Y121526D01*
X6047Y120520D01*
Y120500D01*
X9500D01*
Y123953D01*
D02*
G37*
G36*
X30546Y125150D02*
X29454D01*
X28398Y124867D01*
X27452Y124320D01*
X26680Y123548D01*
X26133Y122602D01*
X25850Y121546D01*
Y120454D01*
X26133Y119398D01*
X26680Y118452D01*
X27452Y117680D01*
X28398Y117133D01*
X29454Y116850D01*
X30546D01*
X31602Y117133D01*
X32548Y117680D01*
X33321Y118452D01*
X33867Y119398D01*
X34150Y120454D01*
Y121546D01*
X33867Y122602D01*
X33321Y123548D01*
X32548Y124320D01*
X31602Y124867D01*
X30546Y125150D01*
D02*
G37*
G36*
X83495Y124256D02*
X82506D01*
X81550Y124000D01*
X80694Y123505D01*
X79994Y122806D01*
X79500Y121950D01*
X79244Y120994D01*
Y120006D01*
X79500Y119050D01*
X79994Y118194D01*
X80694Y117494D01*
X81550Y117000D01*
X82506Y116744D01*
X83495D01*
X84450Y117000D01*
X85306Y117494D01*
X86006Y118194D01*
X86500Y119050D01*
X86756Y120006D01*
Y120994D01*
X86500Y121950D01*
X86006Y122806D01*
X85306Y123505D01*
X84450Y124000D01*
X83495Y124256D01*
D02*
G37*
G36*
X67994D02*
X67005D01*
X66050Y124000D01*
X65194Y123505D01*
X64495Y122806D01*
X64000Y121950D01*
X63744Y120994D01*
Y120006D01*
X64000Y119050D01*
X64495Y118194D01*
X65194Y117494D01*
X66050Y117000D01*
X67005Y116744D01*
X67994D01*
X68950Y117000D01*
X69806Y117494D01*
X70505Y118194D01*
X71000Y119050D01*
X71256Y120006D01*
Y120994D01*
X71000Y121950D01*
X70505Y122806D01*
X69806Y123505D01*
X68950Y124000D01*
X67994Y124256D01*
D02*
G37*
G36*
X103546Y124650D02*
X102454D01*
X101398Y124367D01*
X100452Y123820D01*
X99679Y123048D01*
X99133Y122102D01*
X98850Y121046D01*
Y119954D01*
X99133Y118898D01*
X99679Y117952D01*
X100452Y117180D01*
X101398Y116633D01*
X102454Y116350D01*
X103546D01*
X104602Y116633D01*
X105548Y117180D01*
X106321Y117952D01*
X106867Y118898D01*
X107150Y119954D01*
Y121046D01*
X106867Y122102D01*
X106321Y123048D01*
X105548Y123820D01*
X104602Y124367D01*
X103546Y124650D01*
D02*
G37*
G36*
X140520Y123953D02*
X139480D01*
X138474Y123683D01*
X137573Y123163D01*
X136837Y122427D01*
X136317Y121526D01*
X136047Y120520D01*
Y119480D01*
X136317Y118474D01*
X136837Y117573D01*
X137573Y116837D01*
X138474Y116317D01*
X139480Y116047D01*
X140520D01*
X141526Y116317D01*
X142427Y116837D01*
X143163Y117573D01*
X143683Y118474D01*
X143953Y119480D01*
Y120520D01*
X143683Y121526D01*
X143163Y122427D01*
X142427Y123163D01*
X141526Y123683D01*
X140520Y123953D01*
D02*
G37*
G36*
X13953Y119500D02*
X10500D01*
Y116047D01*
X10520D01*
X11526Y116317D01*
X12427Y116837D01*
X13163Y117573D01*
X13683Y118474D01*
X13953Y119480D01*
Y119500D01*
D02*
G37*
G36*
X9500D02*
X6047D01*
Y119480D01*
X6317Y118474D01*
X6837Y117573D01*
X7573Y116837D01*
X8474Y116317D01*
X9480Y116047D01*
X9500D01*
Y119500D01*
D02*
G37*
G36*
X140520Y113953D02*
X139480D01*
X138474Y113683D01*
X137573Y113163D01*
X136837Y112427D01*
X136317Y111526D01*
X136047Y110520D01*
Y109480D01*
X136317Y108474D01*
X136837Y107573D01*
X137573Y106837D01*
X138474Y106317D01*
X139480Y106047D01*
X140520D01*
X141526Y106317D01*
X142427Y106837D01*
X143163Y107573D01*
X143683Y108474D01*
X143953Y109480D01*
Y110520D01*
X143683Y111526D01*
X143163Y112427D01*
X142427Y113163D01*
X141526Y113683D01*
X140520Y113953D01*
D02*
G37*
G36*
X30494Y102756D02*
X29506D01*
X28550Y102500D01*
X27694Y102006D01*
X26994Y101306D01*
X26500Y100450D01*
X26244Y99494D01*
Y98506D01*
X26500Y97550D01*
X26994Y96694D01*
X27694Y95995D01*
X28550Y95500D01*
X29506Y95244D01*
X30494D01*
X31450Y95500D01*
X32306Y95995D01*
X33005Y96694D01*
X33500Y97550D01*
X33756Y98506D01*
Y99494D01*
X33500Y100450D01*
X33005Y101306D01*
X32306Y102006D01*
X31450Y102500D01*
X30494Y102756D01*
D02*
G37*
G36*
X104500Y92041D02*
Y89500D01*
X107041D01*
X106858Y90184D01*
X106454Y90883D01*
X105883Y91454D01*
X105184Y91858D01*
X104500Y92041D01*
D02*
G37*
G36*
X72500D02*
Y89500D01*
X75041D01*
X74858Y90184D01*
X74454Y90883D01*
X73883Y91454D01*
X73184Y91858D01*
X72500Y92041D01*
D02*
G37*
G36*
X71500D02*
X70816Y91858D01*
X70117Y91454D01*
X69546Y90883D01*
X69142Y90184D01*
X68959Y89500D01*
X71500D01*
Y92041D01*
D02*
G37*
G36*
X103500D02*
X102816Y91858D01*
X102117Y91454D01*
X101546Y90883D01*
X101142Y90184D01*
X100959Y89500D01*
X103500D01*
Y92041D01*
D02*
G37*
G36*
X75041Y88500D02*
X72500D01*
Y85959D01*
X73184Y86142D01*
X73883Y86546D01*
X74454Y87117D01*
X74858Y87816D01*
X75041Y88500D01*
D02*
G37*
G36*
X107041D02*
X104500D01*
Y85959D01*
X105184Y86142D01*
X105883Y86546D01*
X106454Y87117D01*
X106858Y87816D01*
X107041Y88500D01*
D02*
G37*
G36*
X103500D02*
X100959D01*
X101142Y87816D01*
X101546Y87117D01*
X102117Y86546D01*
X102816Y86142D01*
X103500Y85959D01*
Y88500D01*
D02*
G37*
G36*
X71500D02*
X68959D01*
X69142Y87816D01*
X69546Y87117D01*
X70117Y86546D01*
X70816Y86142D01*
X71500Y85959D01*
Y88500D01*
D02*
G37*
G36*
X94404Y92067D02*
X93596D01*
X92816Y91858D01*
X92117Y91454D01*
X91546Y90883D01*
X91142Y90184D01*
X90933Y89404D01*
Y88596D01*
X91142Y87816D01*
X91546Y87117D01*
X92117Y86546D01*
X92816Y86142D01*
X93596Y85933D01*
X94404D01*
X95184Y86142D01*
X95883Y86546D01*
X96454Y87117D01*
X96858Y87816D01*
X97067Y88596D01*
Y89404D01*
X96858Y90184D01*
X96454Y90883D01*
X95883Y91454D01*
X95184Y91858D01*
X94404Y92067D01*
D02*
G37*
G36*
X87067D02*
X80933D01*
Y85933D01*
X87067D01*
Y92067D01*
D02*
G37*
G36*
X62404D02*
X61596D01*
X60816Y91858D01*
X60117Y91454D01*
X59546Y90883D01*
X59142Y90184D01*
X58933Y89404D01*
Y88596D01*
X59142Y87816D01*
X59546Y87117D01*
X60117Y86546D01*
X60816Y86142D01*
X61596Y85933D01*
X62404D01*
X63184Y86142D01*
X63883Y86546D01*
X64454Y87117D01*
X64858Y87816D01*
X65067Y88596D01*
Y89404D01*
X64858Y90184D01*
X64454Y90883D01*
X63883Y91454D01*
X63184Y91858D01*
X62404Y92067D01*
D02*
G37*
G36*
X55067D02*
X48933D01*
Y85933D01*
X55067D01*
Y92067D01*
D02*
G37*
G36*
X140520Y75953D02*
X140500D01*
Y72500D01*
X143953D01*
Y72520D01*
X143683Y73526D01*
X143163Y74427D01*
X142427Y75163D01*
X141526Y75683D01*
X140520Y75953D01*
D02*
G37*
G36*
X139500D02*
X139480D01*
X138474Y75683D01*
X137573Y75163D01*
X136837Y74427D01*
X136317Y73526D01*
X136047Y72520D01*
Y72500D01*
X139500D01*
Y75953D01*
D02*
G37*
G36*
X143953Y71500D02*
X140500D01*
Y68047D01*
X140520D01*
X141526Y68317D01*
X142427Y68837D01*
X143163Y69573D01*
X143683Y70474D01*
X143953Y71480D01*
Y71500D01*
D02*
G37*
G36*
X139500D02*
X136047D01*
Y71480D01*
X136317Y70474D01*
X136837Y69573D01*
X137573Y68837D01*
X138474Y68317D01*
X139480Y68047D01*
X139500D01*
Y71500D01*
D02*
G37*
G36*
X143953Y65953D02*
X136047D01*
Y58047D01*
X143953D01*
Y65953D01*
D02*
G37*
G36*
X120969Y65059D02*
X120031D01*
X119126Y64816D01*
X118315Y64348D01*
X117652Y63685D01*
X117183Y62874D01*
X116941Y61969D01*
Y61031D01*
X117183Y60126D01*
X117652Y59315D01*
X118315Y58652D01*
X119126Y58183D01*
X120031Y57941D01*
X120969D01*
X121874Y58183D01*
X122685Y58652D01*
X123348Y59315D01*
X123817Y60126D01*
X124059Y61031D01*
Y61969D01*
X123817Y62874D01*
X123348Y63685D01*
X122685Y64348D01*
X121874Y64816D01*
X120969Y65059D01*
D02*
G37*
G36*
X143953Y103953D02*
X136047D01*
Y100327D01*
X100780Y65059D01*
X100031D01*
X99126Y64816D01*
X98315Y64348D01*
X97652Y63685D01*
X97184Y62874D01*
X96941Y61969D01*
Y61031D01*
X97184Y60126D01*
X97652Y59315D01*
X98315Y58652D01*
X99126Y58183D01*
X100031Y57941D01*
X100969D01*
X101874Y58183D01*
X102685Y58652D01*
X102842Y58809D01*
X103013Y58880D01*
X103640Y59360D01*
X140326Y96047D01*
X143953D01*
Y103953D01*
D02*
G37*
G36*
X10520Y113953D02*
X9480D01*
X8474Y113683D01*
X7573Y113163D01*
X6837Y112427D01*
X6317Y111526D01*
X6047Y110520D01*
Y109480D01*
X6317Y108474D01*
X6837Y107573D01*
X6974Y107436D01*
Y103953D01*
X6047D01*
Y96047D01*
X9674D01*
X27943Y77778D01*
X27943Y77778D01*
X28100Y77658D01*
X27976Y77122D01*
X26969Y76541D01*
X26049Y75622D01*
X25399Y74496D01*
X25063Y73241D01*
Y71941D01*
X25399Y70685D01*
X26049Y69559D01*
X26969Y68640D01*
X28094Y67990D01*
X29350Y67654D01*
X30650D01*
X31906Y67990D01*
X33031Y68640D01*
X33951Y69559D01*
X34601Y70685D01*
X34937Y71941D01*
Y73241D01*
X34601Y74496D01*
X33951Y75622D01*
X33181Y76392D01*
X33388Y76892D01*
X60829D01*
X77033Y60688D01*
X77184Y60126D01*
X77652Y59315D01*
X78315Y58652D01*
X79126Y58183D01*
X80031Y57941D01*
X80969D01*
X81874Y58183D01*
X82685Y58652D01*
X83348Y59315D01*
X83816Y60126D01*
X84059Y61031D01*
Y61969D01*
X83816Y62874D01*
X83348Y63685D01*
X82685Y64348D01*
X81874Y64816D01*
X81312Y64967D01*
X64222Y82057D01*
X63595Y82538D01*
X62866Y82840D01*
X62082Y82943D01*
X31336D01*
X29535Y84744D01*
X29742Y85244D01*
X30494D01*
X31450Y85500D01*
X32306Y85994D01*
X33005Y86694D01*
X33500Y87550D01*
X33756Y88506D01*
Y89495D01*
X33500Y90450D01*
X33005Y91306D01*
X32306Y92005D01*
X31450Y92500D01*
X30494Y92756D01*
X29506D01*
X28550Y92500D01*
X27694Y92005D01*
X26994Y91306D01*
X26500Y90450D01*
X26244Y89495D01*
Y88742D01*
X25744Y88535D01*
X13953Y100327D01*
Y103953D01*
X13026D01*
Y107436D01*
X13163Y107573D01*
X13683Y108474D01*
X13953Y109480D01*
Y110520D01*
X13683Y111526D01*
X13163Y112427D01*
X12427Y113163D01*
X11526Y113683D01*
X10520Y113953D01*
D02*
G37*
G36*
X50969Y65059D02*
X50031D01*
X49126Y64816D01*
X48315Y64348D01*
X47652Y63685D01*
X47183Y62874D01*
X46941Y61969D01*
Y61031D01*
X47183Y60126D01*
X47652Y59315D01*
X48315Y58652D01*
X49126Y58183D01*
X50031Y57941D01*
X50969D01*
X51874Y58183D01*
X52685Y58652D01*
X53348Y59315D01*
X53816Y60126D01*
X54059Y61031D01*
Y61969D01*
X53816Y62874D01*
X53348Y63685D01*
X52685Y64348D01*
X51874Y64816D01*
X50969Y65059D01*
D02*
G37*
G36*
X120969Y35059D02*
X120031D01*
X119126Y34817D01*
X118315Y34348D01*
X117652Y33685D01*
X117183Y32874D01*
X116941Y31969D01*
Y31031D01*
X117183Y30126D01*
X117652Y29315D01*
X118315Y28652D01*
X119126Y28183D01*
X120031Y27941D01*
X120969D01*
X121874Y28183D01*
X122685Y28652D01*
X123348Y29315D01*
X123817Y30126D01*
X124059Y31031D01*
Y31969D01*
X123817Y32874D01*
X123348Y33685D01*
X122685Y34348D01*
X121874Y34817D01*
X120969Y35059D01*
D02*
G37*
G36*
X100969D02*
X100031D01*
X99126Y34817D01*
X98315Y34348D01*
X97652Y33685D01*
X97184Y32874D01*
X96941Y31969D01*
Y31031D01*
X97184Y30126D01*
X97652Y29315D01*
X98315Y28652D01*
X99126Y28183D01*
X100031Y27941D01*
X100969D01*
X101874Y28183D01*
X102685Y28652D01*
X103348Y29315D01*
X103816Y30126D01*
X104059Y31031D01*
Y31969D01*
X103816Y32874D01*
X103348Y33685D01*
X102685Y34348D01*
X101874Y34817D01*
X100969Y35059D01*
D02*
G37*
G36*
X80969D02*
X80031D01*
X79126Y34817D01*
X78315Y34348D01*
X77652Y33685D01*
X77184Y32874D01*
X76941Y31969D01*
Y31031D01*
X77184Y30126D01*
X77652Y29315D01*
X78315Y28652D01*
X79126Y28183D01*
X80031Y27941D01*
X80969D01*
X81874Y28183D01*
X82685Y28652D01*
X83348Y29315D01*
X83816Y30126D01*
X84059Y31031D01*
Y31969D01*
X83816Y32874D01*
X83348Y33685D01*
X82685Y34348D01*
X81874Y34817D01*
X80969Y35059D01*
D02*
G37*
G36*
X54059D02*
X46941D01*
Y27941D01*
X54059D01*
Y35059D01*
D02*
G37*
G36*
X34937Y36347D02*
X25063D01*
Y26472D01*
X34937D01*
Y36347D01*
D02*
G37*
G36*
X70520Y13953D02*
X70500D01*
Y10500D01*
X73953D01*
Y10520D01*
X73683Y11526D01*
X73163Y12427D01*
X72427Y13163D01*
X71526Y13683D01*
X70520Y13953D01*
D02*
G37*
G36*
X60520D02*
X60500D01*
Y10500D01*
X63953D01*
Y10520D01*
X63683Y11526D01*
X63163Y12427D01*
X62427Y13163D01*
X61526Y13683D01*
X60520Y13953D01*
D02*
G37*
G36*
X69500D02*
X69480D01*
X68474Y13683D01*
X67573Y13163D01*
X66837Y12427D01*
X66317Y11526D01*
X66047Y10520D01*
Y10500D01*
X69500D01*
Y13953D01*
D02*
G37*
G36*
X59500D02*
X59480D01*
X58474Y13683D01*
X57573Y13163D01*
X56837Y12427D01*
X56317Y11526D01*
X56047Y10520D01*
Y10500D01*
X59500D01*
Y13953D01*
D02*
G37*
G36*
X93953D02*
X86047D01*
Y6047D01*
X93953D01*
Y13953D01*
D02*
G37*
G36*
X80520D02*
X79480D01*
X78474Y13683D01*
X77573Y13163D01*
X76837Y12427D01*
X76317Y11526D01*
X76047Y10520D01*
Y9480D01*
X76317Y8474D01*
X76837Y7573D01*
X77573Y6837D01*
X78474Y6317D01*
X79480Y6047D01*
X80520D01*
X81526Y6317D01*
X82427Y6837D01*
X83163Y7573D01*
X83683Y8474D01*
X83953Y9480D01*
Y10520D01*
X83683Y11526D01*
X83163Y12427D01*
X82427Y13163D01*
X81526Y13683D01*
X80520Y13953D01*
D02*
G37*
G36*
X73953Y9500D02*
X70500D01*
Y6047D01*
X70520D01*
X71526Y6317D01*
X72427Y6837D01*
X73163Y7573D01*
X73683Y8474D01*
X73953Y9480D01*
Y9500D01*
D02*
G37*
G36*
X69500D02*
X66047D01*
Y9480D01*
X66317Y8474D01*
X66837Y7573D01*
X67573Y6837D01*
X68474Y6317D01*
X69480Y6047D01*
X69500D01*
Y9500D01*
D02*
G37*
G36*
X63953D02*
X60500D01*
Y6047D01*
X60520D01*
X61526Y6317D01*
X62427Y6837D01*
X63163Y7573D01*
X63683Y8474D01*
X63953Y9480D01*
Y9500D01*
D02*
G37*
G36*
X59500D02*
X56047D01*
Y9480D01*
X56317Y8474D01*
X56837Y7573D01*
X57573Y6837D01*
X58474Y6317D01*
X59480Y6047D01*
X59500D01*
Y9500D01*
D02*
G37*
%LPD*%
D10*
X100500Y61500D02*
X101500D01*
D19*
X120500D02*
D03*
Y31500D02*
D03*
X100500Y61500D02*
D03*
Y31500D02*
D03*
X80500Y61500D02*
D03*
Y31500D02*
D03*
X50500Y61500D02*
D03*
D20*
Y31500D02*
D03*
D26*
X10000Y100000D02*
Y110000D01*
X30082Y79918D02*
X62082D01*
X10000Y100000D02*
X30082Y79918D01*
X62082D02*
X80500Y61500D01*
X101500D02*
X140000Y100000D01*
D27*
X83000Y120500D02*
D03*
Y130500D02*
D03*
X67500Y120500D02*
D03*
Y130500D02*
D03*
X30000Y99000D02*
D03*
Y89000D02*
D03*
D28*
X103000Y130500D02*
D03*
Y120500D02*
D03*
X30000Y131000D02*
D03*
Y121000D02*
D03*
D29*
X10000Y130000D02*
D03*
Y120000D02*
D03*
Y110000D02*
D03*
X140000Y130000D02*
D03*
Y120000D02*
D03*
Y110000D02*
D03*
Y72000D02*
D03*
X80000Y10000D02*
D03*
X70000D02*
D03*
X60000D02*
D03*
D30*
X10000Y100000D02*
D03*
X140000D02*
D03*
Y62000D02*
D03*
D31*
X104000Y89000D02*
D03*
X94000D02*
D03*
X72000D02*
D03*
X62000D02*
D03*
D32*
X84000D02*
D03*
X52000D02*
D03*
D33*
X90000Y10000D02*
D03*
D34*
X30000Y31409D02*
D03*
D35*
Y72591D02*
D03*
M02*
